<svg xmlns="http://www.w3.org/2000/svg" data-name="Layer 1" viewBox="0 0 512 512"><circle cx="376.36" cy="376.36" r="128.14" fill="#d8ecfe"/><path fill="#b3dafe" d="M389.54,248.9a128.13,128.13,0,0,1-83.18,225.6,130.33,130.33,0,0,1-13.17-.67A128.14,128.14,0,1,0,389.54,248.9Z"/><circle cx="376.36" cy="343.5" r="43" fill="#ffcebf"/><path fill="#a2e62e" d="M376.36,504.5a127.66,127.66,0,0,0,82.4-30l-3.4-28.09A30,30,0,0,0,425.58,420H327.15a30,30,0,0,0-29.78,26.4L294,474.49A127.65,127.65,0,0,0,376.36,504.5Z"/><path fill="#97d729" d="M380.53,504.43c26.86-.76,55.79-10.8,78.23-29.94-3.31-41.65-8.14-56.78-47.53-54.49-25,36.16-70.29,58.59-117.19,53.91l-.07.57C317.64,494.29,348.57,505.68,380.53,504.43Z"/><circle cx="135.64" cy="135.64" r="128.14" fill="#d8ecfe"/><path fill="#b3dafe" d="M148.83,8.22a128.13,128.13,0,0,1-83.17,225.6,130.38,130.38,0,0,1-13.18-.67A128.14,128.14,0,1,0,148.83,8.22Z"/><path fill="#9facba" d="M135.64,105.41a7.5,7.5,0,0,1-7.5-7.5V66.44a7.5,7.5,0,0,1,15,0V97.91A7.5,7.5,0,0,1,135.64,105.41Z"/><circle cx="135.64" cy="50.5" r="15.94" fill="#fd4755"/><rect width="156.86" height="81.87" x="57.21" y="129.57" fill="#9facba" rx="25"/><path fill="#8d9ca8" d="M191.54,129.69A128.22,128.22,0,0,1,138,211.44h51.06a25,25,0,0,0,25-25V154.56A25,25,0,0,0,191.54,129.69Z"/><circle cx="98.14" cy="170.5" r="15.94" fill="#fff"/><circle cx="173.13" cy="170.5" r="15.94" fill="#fff"/><path fill="#e8edf2" d="M173.13,186.44a15.92,15.92,0,0,0,9.6-28.64,127.84,127.84,0,0,1-16.38,27.11A15.86,15.86,0,0,0,173.13,186.44Z"/><path fill="#b6c4cf" d="M101.89,97.91h67.49a8.33,8.33,0,0,1,8.33,8.33v23.33a0,0,0,0,1,0,0H93.56a0,0,0,0,1,0,0V106.24A8.33,8.33,0,0,1,101.89,97.91Z"/><path fill="#fedf30" d="M406.26,7.5c-55,0-99.57,32.23-99.57,72,0,15.2,6.53,29.29,17.66,40.91L300.14,149l62.9-4.6a131.53,131.53,0,0,0,43.22,7.12c55,0,99.57-32.23,99.57-72S461.25,7.5,406.26,7.5Z"/><path fill="#fed402" d="M457.32,17.68C469,29.47,475.83,43.9,475.83,59.49c0,39.76-44.58,72-99.57,72A131.53,131.53,0,0,1,333,124.36l-12.84.94L300.14,149l62.9-4.6a131.53,131.53,0,0,0,43.22,7.12c55,0,99.57-32.23,99.57-72C505.83,53.23,486.38,30.25,457.32,17.68Z"/><path fill="#fef48b" d="M448.71 103.36H364.3a7.5 7.5 0 0 1 0-15h84.41a7.5 7.5 0 0 1 0 15zM448.71 66.8H364.3a7.5 7.5 0 0 1 0-15h84.41a7.5 7.5 0 0 1 0 15z"/><path fill="#fedf30" d="M107.07,504.5c55,0,99.57-32.23,99.57-72,0-15.2-6.53-29.29-17.65-40.91L213.19,363l-62.9,4.6a131.53,131.53,0,0,0-43.22-7.12c-55,0-99.57,32.23-99.57,72S52.08,504.5,107.07,504.5Z"/><path fill="#fed402" d="M213.19,363l-50.05,3.66L159,371.6c11.12,11.62,17.65,25.71,17.65,40.91,0,39.76-44.58,72-99.57,72A129,129,0,0,1,26,474.32c18.06,18.27,47.64,30.18,81.06,30.18,55,0,99.57-32.23,99.57-72,0-15.2-6.53-29.29-17.65-40.91Z"/><path fill="#fef48b" d="M149 423.64H64.62a7.5 7.5 0 0 1 0-15H149a7.5 7.5 0 0 1 0 15zM149 460.2H64.62a7.5 7.5 0 0 1 0-15H149a7.5 7.5 0 1 1 0 15z"/></svg>