<svg xmlns="http://www.w3.org/2000/svg" enable-background="new 0 0 3800 3000" viewBox="0 0 3800 3000"><path fill="#f9f2f2" d="M3092.25,2710.75c199.1-255.81,317.73-577.34,317.73-926.6c0-833.94-676.04-1509.98-1509.98-1509.98
		S390.02,950.2,390.02,1784.14c0,349.27,118.63,670.79,317.73,926.6H3092.25z"/><path fill="#f4e1e1" d="M2447.18,855.11c-0.02-0.1-0.05-0.2-0.07-0.31c3.36-3.91,70.91-109.96,57.59-128.63
		c-12.7-18.24-87.85-15.27-91.28-15.38c-0.01-0.02-0.01-0.04-0.02-0.06c-593.47,138.87-1211.02,138.89-1804.51,0.07
		c0.03,0.23-78.61-3.28-91.61,15.37c-13.64,19.05,57.18,129.19,57.84,129.01c11.33,2.65,22.68,5.15,34.03,7.7
		c15.83,34.62,43.3,77.09,43.69,76.98c73.25,17.13,146.89,31.99,220.8,44.68l-7.61,143.15H678.34v121.67h58.41v84.16
		c-42.28,1.85-76.02,36.61-76.02,79.35v10.11v7.04v86.13v1.18c0,1.97,0.09,3.89,0.22,5.82c2.97,41.21,37.36,73.7,79.3,73.7
		c21.96,0,41.82-8.92,56.25-23.27c13.08-13.17,21.65-30.8,23.05-50.43c0.13-1.92,0.22-3.85,0.22-5.82v-1.18v-86.13v-7.04v-10.11
		c0-42.74-33.74-77.5-76.03-79.35v-84.16h115.81L802.76,2437H678.61v273.75h513.49V2437h-123.62l-56.81-1187.64h998.65L1953.5,2437
		h-123.62v273.75h513.49V2437h-124.15l-56.81-1187.64h140.78v84.16c-42.28,1.85-76.02,36.61-76.02,79.35v10.11v7.04v86.13v1.18
		c0,1.97,0.09,3.89,0.22,5.82c2.97,41.21,37.36,73.7,79.3,73.7c21.96,0,41.82-8.92,56.25-23.27c13.08-13.17,21.65-30.8,23.05-50.43
		c0.13-1.92,0.22-3.85,0.22-5.82v-1.18v-86.13v-7.04v-10.11c0-42.74-33.74-77.5-76.02-79.35v-84.16h33.44v-121.67h-187.69
		l-7.61-143.15c74.02-12.7,147.76-27.59,221.11-44.75c-0.02-0.09-0.04-0.19-0.07-0.28c1.97-2.3,28.15-43.12,43.46-76.63
		C2424.28,860.31,2435.75,857.78,2447.18,855.11z M2016.78,1127.69H1005.19l-6.59-123.9c339.99,46.67,684.77,46.67,1024.76,0
		L2016.78,1127.69z"/><path fill="#e0c1c1" d="M2876.45,1415.47c-8.71,1.42-17.12,7.33-11.81,17.71c5.97,11.6,17.3,4.8,22.85-3.44
			c-3.35,9.36-2.11,22.51,10.7,20.41c12.65-1.99,11.13-14.01,6.2-22.02c2.95,1.2,6.17,1.84,9.28,1.93
			c14.86,5.74,31.13,11.79,31.13,11.79l-0.29,4.09c-7.17,0.72-10.59,9.25-10.71,16.69c-4.8-9.04-17.4-18.07-23.96-5.7
			c-5.6,10.49,3.12,16.47,11.93,17.97c-8.67,1.54-17.16,7.41-11.85,17.79c5.97,11.6,17.34,4.72,22.85-3.44
			c-3.31,9.28-2.11,22.51,10.78,20.45c12.57-2.03,11.09-14.13,6.2-22.02c9.04,3.58,21.72,2.89,20.44-9.79
			c-0.49-4.89-2.56-7.81-5.47-9.28c-4.48-2.26-11.06-0.95-16.07,1.74c7.27-5.4,13.22-15.61,5.33-21.48l2.29-9.4l2.6,0.13
			c1.48,4.1,4.97,6.95,11.31,5.92c4.3-0.69,6.9-2.53,8.33-4.96l9.72,0.48c0,0,0.57,3.55,1.34,8.08c-5.57-4-12.26-4.82-16.51,3.2
			c-5.68,10.65,3.19,16.71,12.09,18.25c-8.79,1.57-17.4,7.48-11.97,18.02c6.09,11.76,17.58,4.84,23.21-3.56
			c-3.43,9.51-2.19,22.87,10.89,20.8c12.77-2.03,11.25-14.24,6.28-22.38c9.28,3.7,22.08,2.97,20.8-9.91
			c-1.28-12.88-13.61-12.11-22.02-7.58c8.14-5.95,14.81-17.97,2.7-23.5c-8.33-3.82-13.51,0.57-15.98,6.82l1.12-12.75l50.34,5.82
			c-1.87,3.89-1.93,8.69,1.08,14.46c8.75,16.85,25.21,6.92,33.26-5.09c-4.82,13.64-3.06,32.79,15.62,29.8
			c6.34-1.03,10.14-3.85,12.28-7.51c6.15,6.76,13.6,13.88,22.12,20.46c21.5,16.59,98.62,58.64,127.45,74.2
			c-4.43,3.49-6.62,10.37-6.69,16.55c-5.43-10.14-19.56-20.25-26.98-6.34c-6.23,11.75,3.58,18.48,13.46,20.22
			c-9.73,1.69-19.29,8.3-13.24,19.95c6.68,12.95,19.43,5.28,25.65-3.9c-3.71,10.46-2.4,25.23,12.07,22.97
			c14.07-2.26,12.43-15.81,6.92-24.82c10.26,4.1,24.48,3.3,23.01-10.96c-1.36-13.32-13.45-13.41-22.56-9.24l10.72-11.45
			c0,0,10.54-5.23,49.44,22.43c38.94,27.58,60.65,16.06,60.65,16.06l8.75,23.45c-2.3-25.79-5.3-74.36-14.3-101.94l-91.31-163.95
			l7.16-7.53c-0.32,10.59,4.24,20.1,17.88,17.92c18.24-2.91,16.16-20.44,8.92-32.09c13.33,5.26,31.68,4.28,29.87-14.2
			c-1.81-18.48-19.53-17.37-31.61-10.85c11.81-8.53,21.34-25.82,3.93-33.73c-17.17-7.79-25.08,8.63-25.34,22.41
			c-7.07-13.14-25.36-26.34-34.89-8.27c-8.1,15.24,4.66,23.96,17.37,26.14c-12.65,2.19-24.97,10.76-17.13,25.87
			c1.76,3.55,3.99,5.77,6.31,7.23l-10.22,30.55l-5.81-3.53c3.51-1.48,5.85-4.74,5.28-10.45c-1.24-12.76-13.41-11.91-21.66-7.5
			c7.98-5.83,14.57-17.69,2.62-23.14c-11.79-5.37-17.19,5.91-17.35,15.4c-4.88-9.08-17.4-18.07-23.96-5.7
			c-5.6,10.49,3.12,16.47,11.93,17.97c-8.75,1.5-17.16,7.41-11.85,17.79c6.01,11.52,17.34,4.72,22.89-3.52
			c-3.35,9.36-2.11,22.51,10.66,20.48c10.72-1.68,11.35-10.74,8.15-18.27l31.9,26.09l66.21,128c0,0-85.37-25.9-94.1-28.34
			c-3.7-1.08-29.4-20.1-59.08-42c-0.55-1.26-1.21-2.49-1.91-3.63c9.04,3.58,21.72,2.89,20.44-9.79
			c-1.24-12.76-13.41-11.91-21.66-7.5c8.06-5.79,14.65-17.66,2.62-23.14c-11.79-5.37-17.2,5.91-17.35,15.4
			c-4.8-9.04-17.4-18.07-23.96-5.7c-0.56,1.1-0.95,2.08-1.23,3.03c-4.91-3.57-9.73-6.89-14.33-10.1c0.72-2.2,1.08-4.68,0.74-7.71
			c-1.77-17.77-18.11-17.45-30.11-11.67l-0.23-0.12c11.18-8.85,19.45-25.19,2.59-32.83c-17.13-7.87-25.08,8.63-25.26,22.45
			c-7.03-13.22-25.36-26.34-34.89-8.27c-3.14,5.81-3.04,10.7-1.21,14.68c-18.75,1.18-39.94,2.89-58.02,4.51
			c3.2-1.64,5.22-4.86,4.73-10.34c-1.28-12.69-13.45-11.83-21.7-7.42c8.02-5.91,14.57-17.69,2.62-23.14
			c-11.75-5.45-17.19,5.91-17.35,15.4c-4.88-9.08-17.4-18.07-23.96-5.7c-5.6,10.49,3.12,16.47,11.93,17.97
			c-7.69,1.34-15.11,6.08-13.14,14.28l-10.74-2.37c0.32-1.22,0.45-2.64,0.29-4.29c-1.28-12.69-13.41-11.91-21.7-7.42
			c8.02-5.91,14.61-17.77,2.66-23.22c-11.79-5.37-17.19,5.91-17.36,15.4c-4.92-9-17.4-18.07-23.99-5.62
			C2858.96,1407.91,2867.68,1413.9,2876.45,1415.47z M2976.44,1423.4c1.61,0.72,3.26,1.16,4.99,1.44c-1.34,0.11-2.68,0.22-3.94,0.38
			C2977.1,1424.62,2976.83,1423.99,2976.44,1423.4z M2958.03,1427.02c0.51-0.63,1.07-1.33,1.51-2c-0.24,0.67-0.44,1.26-0.68,1.93
			C2958.66,1426.94,2958.35,1426.98,2958.03,1427.02z"/><path fill="#e0c1c1" d="M3214.83 1318.97c-8.67 1.5-17.15 7.38-11.79 17.78 5.97 11.56 17.29 4.73 22.84-3.49-3.33 9.34-2.12 22.52 10.73 20.47 12.58-2.01 11.12-14.06 6.2-22.06 9.1 3.61 21.76 2.93 20.5-9.75-1.27-12.7-13.44-11.92-21.71-7.45 8.07-5.87 14.64-17.72 2.66-23.19-11.78-5.37-17.22 5.92-17.39 15.4-4.84-9.04-17.41-18.07-23.97-5.67C3197.36 1311.48 3206.07 1317.47 3214.83 1318.97zM2439.73 374.9l3.69-11.27c4.85 11.06 14.25 18.64 27.2 9.79 17.48-11.95 6.72-29.02-6.35-37.54 16.24-1.03 34.78-11.05 23.87-29.2-10.93-18.19-28.66-8.37-37.92 4.22 7.96-14.56 9.41-37.02-12.46-36.73-21.51.29-21.68 21.13-15.19 35.49-13.69-10.14-38.99-14.79-40.04 8.5-.89 19.66 16.45 22.49 30.68 18.52-11.95 8.41-20.52 23.27-5.09 35.08 3.58 2.74 6.93 4.01 10.03 4.32l4.39 36.56-7.69-.76c2.89-3.31 3.72-7.78.32-13.44-7.51-12.49-19.69-5.75-26.05 2.9 5.47-10 6.47-25.44-8.56-25.24-14.78.2-14.89 14.52-10.44 24.38-9.4-6.97-26.79-10.16-27.51 5.84-.61 13.51 11.3 15.46 21.08 12.73-8.21 5.78-14.1 15.99-3.49 24.1 11.8 9.03 20.16-3.55 21.88-14.75 1.12 11.27 8.79 24.28 21.06 15.89 10.22-6.99 6.39-16.56-.52-22.86l45.67 11.44 130.76 99.85c0 0-100.8 14.83-110.95 16.58-4.31.74-40.17-6.41-81.48-14.48-1.19-1.08-2.48-2.03-3.8-2.89 11.16-.71 23.9-7.59 16.4-20.06-7.51-12.5-19.69-5.75-26.05 2.9 5.47-10 6.47-25.44-8.56-25.24-14.78.2-14.89 14.52-10.44 24.38-9.4-6.97-26.78-10.16-27.51 5.84-.06 1.34.01 2.56.18 3.69-6.82-1.24-13.41-2.4-19.72-3.47-.33-2.57-1.19-5.32-3-8.34-10.48-17.44-27.24-9.14-36.76 2.67-.11-.01-.21-.01-.32-.02 7.2-14.55 7.8-35.44-13.3-35.16-21.51.29-21.68 21.13-15.19 35.49-13.69-10.14-38.99-14.79-40.04 8.5-.34 7.57 2.08 12.58 5.92 15.74-18.77 10.41-39.76 22.49-57.72 32.96 2.52-3.25 3.1-7.54-.12-12.9-7.51-12.5-19.69-5.75-26.05 2.9 5.47-10 6.47-25.44-8.56-25.24-14.78.2-14.89 14.51-10.43 24.38-9.4-6.97-26.79-10.16-27.51 5.84-.61 13.51 11.3 15.45 21.08 12.73-7.24 5.09-12.61 13.61-6.54 21.13l-12.21 2.8c-.34-1.44-.86-2.94-1.84-4.57-7.51-12.5-19.69-5.75-26.05 2.9 5.47-10 6.47-25.44-8.56-25.24-14.78.2-14.89 14.51-10.44 24.38-9.4-6.97-26.79-10.16-27.51 5.84-.61 13.51 11.3 15.45 21.08 12.73-8.21 5.78-14.1 15.99-3.5 24.1 11.8 9.03 20.16-3.55 21.88-14.75 1.12 11.27 8.79 24.28 21.06 15.89 12.01-8.21 4.62-19.94-4.36-25.8 3.57-.23 7.29-1.05 10.47-2.53 18.16-1.35 37.97-2.98 37.97-2.98l1.64 4.37c-7.03 4.25-6.4 14.68-2.9 22.43-9.41-6.97-26.79-10.16-27.51 5.84-.61 13.51 11.3 15.45 21.08 12.73-8.21 5.78-14.1 15.99-3.49 24.1 11.8 9.03 20.16-3.55 21.88-14.75 1.12 11.27 8.79 24.28 21.06 15.89 12.01-8.21 4.62-19.94-4.36-25.8 11.16-.71 23.9-7.59 16.4-20.06-7.48-12.44-19.59-5.8-25.97 2.79l-.01-.03c4.91-9.1 6.11-22.54-4.97-24.77l-2.18-10.88 2.68-1.11c3.6 3.57 8.55 4.75 14.65.57 4.05-2.77 5.8-5.94 6.13-9.15l10.27-4.24c0 0 2.37 3.38 5.36 7.69-7.74-1.41-15.08 1.01-15.54 11.35-.62 13.72 11.48 15.7 21.41 12.93-8.34 5.87-14.32 16.24-3.55 24.48 11.99 9.17 20.47-3.61 22.22-14.98 1.14 11.45 8.93 24.66 21.39 16.14 12.19-8.34 4.69-20.25-4.43-26.2 11.33-.72 24.27-7.71 16.66-20.38-7.63-12.69-20-5.84-26.46 2.95 5.55-10.16 6.57-25.84-8.7-25.63-10.41.14-13.62 7.19-13.13 14.84l-5.06-13.7 54.77-18.52c.04 4.88 2.33 9.85 8.23 14.37 17.18 13.14 29.34-5.17 31.84-21.47 1.63 16.4 12.8 35.34 30.65 23.13 6.05-4.13 8.59-8.89 8.96-13.7 9.7 3.93 20.87 7.7 32.82 10.31 30.32 6.62 130.45 12.46 167.77 14.45-2.86 5.74-1.75 13.87 1.18 20.35-10.56-7.83-30.09-11.41-30.9 6.56-.69 15.18 12.7 17.36 23.68 14.3-9.23 6.49-15.84 17.96-3.93 27.07 13.26 10.14 22.64-3.99 24.57-16.57 1.26 12.66 9.88 27.28 23.66 17.85 13.49-9.22 5.19-22.4-4.9-28.98 12.54-.8 26.85-8.53 18.42-22.54-7.9-13.14-20.42-7.34-27.84 1.42l5.49-16.99c0 0 8.37-10.56 62.02-1.04 53.65 9.52 70.42-12.95 70.42-12.95l302.6 166.18L2856.9 627.01 2439.73 374.9zM2132.12 580.32c-.63-.49-1.28-.93-1.93-1.36 1.96-.12 3.94-.45 5.89-.95C2134.72 578.8 2133.41 579.57 2132.12 580.32zM2112.93 591.64c.23-.93.41-1.85.56-2.78.08.76.16 1.51.3 2.27C2113.51 591.3 2113.2 591.48 2112.93 591.64z"/><path fill="#e0c1c1" d="M2268.33,366.52c-8.21,5.78-14.1,15.99-3.5,24.1c11.8,9.03,20.16-3.55,21.88-14.75
			c1.12,11.27,8.79,24.28,21.06,15.89c12.01-8.21,4.62-19.94-4.36-25.8c11.16-0.71,23.9-7.59,16.4-20.06
			c-7.51-12.5-19.69-5.75-26.05,2.9c5.47-10,6.47-25.44-8.56-25.24c-14.78,0.2-14.89,14.51-10.44,24.38
			c-9.4-6.97-26.78-10.16-27.51,5.84C2246.63,367.31,2258.55,369.25,2268.33,366.52z"/><g><path fill="#ffd941" d="M2214.09 2336.56L2214.09 2336.56c-11.52 0-20.85 9.34-20.85 20.85v188.65h41.71v-188.65C2234.95 2345.89 2225.61 2336.56 2214.09 2336.56zM2468.5 2390.79L2468.5 2390.79c-11.52 0-20.85 9.34-20.85 20.85v188.65h41.71v-188.65C2489.35 2400.12 2480.02 2390.79 2468.5 2390.79z"/><path fill="#202647" d="M1840.82,2448.37v254.31h643.19l12.11-254.31C2496.12,2448.37,2074.4,2392.67,1840.82,2448.37z"/><ellipse cx="2168.47" cy="2448.37" fill="#f2edda" rx="327.65" ry="84.77"/><path fill="#fff" d="M2168.47,2505.96c-178.09,0-287.85-36.78-300.03-57.59c12.18-20.8,121.95-57.59,300.03-57.59
				s287.85,36.78,300.03,57.59C2456.32,2469.18,2346.56,2505.96,2168.47,2505.96z"/><path fill="#ffd941" d="M2275.17,2493.18L2275.17,2493.18c-11.52,0-20.85,9.34-20.85,20.85v188.65h41.71v-188.65
				C2296.03,2502.52,2286.69,2493.18,2275.17,2493.18z"/><path fill="#db8f71" d="M1941.54,1377.39l315.81-29.33l12.64-397.13l77.5-41.72c0,0,166.31,468.5,152.45,684.2
			s-581.78,68.96-581.78,68.96L1941.54,1377.39z"/><path fill="#d12f2f" d="M1668.43,1348.35l390.86-31.22c0,0,71.81,348.93,34.29,413.52
			C2056.06,1795.24,1591.55,1565.31,1668.43,1348.35z"/><path fill="#ee4a49" d="M1689.1,1321.48c236.81,16.46,576.07,414.98,463.82,1381.2H1019.86
			C1019.86,2702.68,1265.77,1292.06,1689.1,1321.48z"/><path fill="#f54339" d="M1711.1,726.33c0,0,12.33-122.71-13.51-140.48c-25.83-17.76-74.27,110.08-74.27,110.08
			s-35.52-72.94-117.87-93.93c-82.35-20.99-30.68,124.33-30.68,124.33s-46.83-43.6-135.63-38.75
			c-88.81,4.84,17.76,143.71,17.76,143.71s-163.08-23-158.24,52.28c4.84,75.28,150.16,58.32,150.16,58.32
			s-121.1,105.76-87.19,152.59c33.91,46.83,138.86-21.95,138.86-21.95s6.46-134.67,64.59-217.02
			C1523.21,773.16,1708.25,778,1711.1,726.33z"/><path fill="#202647" d="M1828.57,878.47c0,0-22.35-5.28-25.02,15.06c0,0-0.17,5.3,4.12,4.49c4.29-0.81,25.14-4.15,26.4-10.93
					C1835.34,880.31,1828.57,878.47,1828.57,878.47z"/><path fill="#e69f7e" d="M1798.72,848.63c5.87,11.52,12.61,25.36,19.48,40.23c7.48,15.93,15.11,33.49,22.43,51.86
					c15.48,19.46,51.09,68.58,27.22,83.78c16.86,69.37,16.13,136.02-33.08,166.03c-11.51,6.97-23.33,12.86-35.21,17.84
					l-14.55,162.22c-71.21,42.72-191.82,0-191.82,0l24.52-155.87c-45.42-16.13-81.35-45.44-96.9-82.13
					c-37.17-88.23-21.14-272.35,28.97-300.53c50.11-28.17,226.55-24.34,226.55-24.34S1785.68,823.36,1798.72,848.63z"/><path fill="#202647" d="M1875.56 1065.15c0 0-23.37-3.37-20.04 23.58 3.33 26.94 13.33 47.83 22.26 30.28C1886.71 1101.44 1875.56 1065.15 1875.56 1065.15zM1738.85 910.21c0 0 24.91-20.58 53.27-9.05 0 0 6.65 3.41-.33 6.15-6.98 2.73-40.24 16.42-50.22 12.86C1731.6 916.61 1738.85 910.21 1738.85 910.21z"/><path fill="#231f20" d="M1826.89,1065.56c14.82,22.49,12.23,50.35-5.79,62.22c-18.02,11.88-44.65,3.27-59.46-19.22
					c-14.82-22.49-12.23-50.35,5.79-62.22C1785.44,1034.46,1812.07,1043.07,1826.89,1065.56z" opacity=".05"/><path fill="#202647" d="M1776.53 801.16c0 0 22.28 31.03-35.82 30.51-58.09-.52-105.96-32.83-136.65 23.46-30.69 56.28 48.3 138.61 14.87 147.48-33.42 8.87-25.03-28.82-57.55-15.74-32.51 13.08-38.65 76.59 4.19 88.96 42.84 12.37 119.9 82.06 40.75 144.93-79.15 62.87-144.39-56.76-150.94-95.29-6.56-38.53-139.95-217.78-17.09-321.61C1561.16 700.02 1726.96 779.83 1776.53 801.16zM1869.36 1030.39c-2 1.16-4.14 1.92-6.38 2.25-7.59 1.14-13.31-3.03-13.95-3.51-2.37-1.82-2.82-5.22-1-7.61 1.78-2.37 5.18-2.83 7.55-1.05.14.1 2.8 1.94 5.88 1.43 2.4-.39 4.68-2.14 6.81-5.12 1.68-2.42 5.1-3.03 7.55-1.27 2.44 1.74 3 5.11 1.27 7.55C1874.77 1026.3 1872.19 1028.76 1869.36 1030.39z"/><path fill="#202647" d="M1558.5 1043.8c-2.29 1.32-5.23.82-6.93-1.3-7.16-8.87-9.42-17.01-6.73-24.18 4.41-11.83 20.42-14.98 22.23-15.29 2.95-.51 5.75 1.44 6.28 4.38.53 2.95-1.44 5.77-4.37 6.29-3.02.56-12.08 3.28-13.99 8.44-1.55 4.15 1.88 9.66 5.02 13.57 1.89 2.33 1.52 5.74-.82 7.61C1558.97 1043.51 1558.73 1043.66 1558.5 1043.8zM1828.88 1200.45c-59.2 34.21-100.13 13.94-101.93 13.02-2.65-1.37-3.7-4.62-2.34-7.27 1.36-2.64 4.59-3.73 7.28-2.38 1.66.84 41.5 20.09 99.94-17.9 2.65-1.93 5.87-.93 7.5 1.57 1.64 2.51.93 5.87-1.57 7.5C1834.76 1196.94 1831.79 1198.77 1828.88 1200.45z"/><path fill="#ffd941" d="M2973.16,384.08l-419.43,365l-658.4,323.78l10.32,34.49l228.61-43.85l116.13,237.89
				c2.57,5.34,7.7,8.81,13.37,9.42c1.44,0.16,2.91,0.09,4.41-0.2l239.17-37.54c6.97-1.04,12.48-6.29,13.89-13.11l59.13-282
				l39.93-7.6l528.43,20.92C2857.78,744.62,2973.16,384.08,2973.16,384.08z M2490.72,1241.72l-215.49,33.69l-106.77-218.44
				l376.08-72.08L2490.72,1241.72z"/><path fill="#dda631" d="M2973.16,384.08l-27.04,23.49c-35.51,57.19-82.84,166.49-71.15,331.83
				c18.21,257.88-147.33,157.94-303.88,161.03c-138.3,2.7-569.64,159.62-668.57,196.36l3.13,10.57l228.61-43.85l116.13,237.89
				c2.57,5.34,7.7,8.81,13.37,9.42c1.44,0.16,2.91,0.09,4.41-0.2l239.17-37.54c6.97-1.04,12.48-6.29,13.89-13.11l59.13-282
				l39.93-7.6l528.43,20.92C2857.78,744.62,2973.16,384.08,2973.16,384.08z M2490.72,1241.72l-215.49,33.69l-106.77-218.44
				l376.08-72.08L2490.72,1241.72z" opacity=".85"/><path fill="#ffef9d" d="M3012.66,405.85c-1.64-1.78-3.38-3.68-5.14-5.47c-0.08-0.08-0.15-0.16-0.23-0.24
				c-10.47-10.85-28.82-5.39-32,9.31c-19.85,91.93-53.49,359.3,163.08,562.86c10.92,10.26,28.88,4.1,31.52-10.62
				C3185.9,872.28,3209.83,615.15,3012.66,405.85z"/><path fill="#202647" d="M1744.42,956.42c0,0,27.15-26.34,59.14-20.89c0,0,6.46,5.75,0,8.78
			C1797.09,947.34,1769.85,944.62,1744.42,956.42z"/><path fill="#f7f4e2" d="M1337.54 842.42c-46.68 1.39-127.01-4.89-125.96 29.24 1.02 33.16 76.35 52.26 115.88 59.61C1327.09 928.75 1323.45 886.84 1337.54 842.42zM1596.39 688.98c-29.2-31.89-97.68-102.38-110.32-76.48-10.45 21.41-4.35 62.35-.7 91.48C1521.7 685.81 1576.59 688.05 1596.39 688.98z"/><path fill="#f7f4e2" d="M1780.73,803.81c0,0-194.34-30.17-272.75,117.01c-78.42,147.05-37.24,231.85-37.24,231.85
			s-180.89-109.54-123.54-297.21c41.45-135.77,216.08-188.09,333.37-146.09c31.66,11.28,58.98,29.49,78.55,54.77
			C1768.09,775.81,1775.43,788.99,1780.73,803.81z"/><g opacity=".85"><path fill="#f54339" d="M1366.19 954.5c.16-.8.44-2.05.84-3.76.4-1.71.89-3.31 1.46-4.8.61-1.55 1.27-2.87 1.96-3.95.7-1.09 1.51-1.92 2.44-2.5.92-.57 2-.85 3.24-.83 1.25.02 2.73.37 4.49 1.06l37.47 14.67c6 2.36 9.83 5.85 11.48 10.46 1.66 4.61 1.18 10.27-1.45 16.95-1.37 3.51-3.03 6.13-4.95 7.86-1.34 1.27-2.8 2-4.37 2.2-1.55.21-3.15-.01-4.76-.64-1.35-.52-2.46-1.17-3.33-1.94-.86-.76-1.49-1.54-1.88-2.32.77-1.17 1.38-2.2 1.84-3.07.45-.87.9-1.84 1.31-2.93 1.04-2.63 1.12-4.78.25-6.44-.86-1.67-2.57-3-5.15-4L1366.19 954.5zM1391.24 905.39c.03-1.43.4-3.38 1.14-5.86.74-2.47 1.78-4.8 3.09-6.97 1.88-3.09 3.99-5.56 6.34-7.4 2.35-1.84 4.7-2.51 7.02-2.03 3.9.85 8.39 1.92 13.44 3.22 5.07 1.29 10.27 2.67 15.62 4.15 5.34 1.47 10.6 2.93 15.78 4.38 5.18 1.45 9.75 2.75 13.72 3.9.42 1.27.44 2.81.07 4.61-.39 1.81-1.2 3.74-2.43 5.78-.92 1.49-1.79 2.66-2.67 3.54-.86.87-1.75 1.48-2.64 1.83-.89.35-1.86.48-2.91.4-1.05-.09-2.19-.3-3.44-.63l-7.43-2.22-10.22 16.81c1.55 1.63 3.17 3.28 4.86 4.98 1.69 1.71 3.29 3.36 4.86 4.99-.23 1.05-.52 2.13-.88 3.22-.37 1.09-.97 2.32-1.79 3.68-1.92 3.16-3.89 5.17-5.89 6.02-2 .86-3.97.7-5.89-.46-.86-.52-1.66-1.17-2.38-1.95-.72-.78-1.57-1.67-2.56-2.7-1.41-1.45-3.11-3.31-5.12-5.59-2-2.28-4.17-4.76-6.48-7.45-2.31-2.67-4.67-5.47-7.06-8.37-2.4-2.89-4.66-5.63-6.8-8.2-2.12-2.57-4.01-4.88-5.64-6.93C1393.34 908.09 1392.09 906.5 1391.24 905.39zM1410.01 901.53c2.07 2.45 4.37 5.19 6.9 8.21 2.53 3.03 5.18 5.97 7.94 8.83l6.99-11.51c-3.86-1.17-7.67-2.27-11.4-3.32-3.74-1.04-7.1-1.96-10.1-2.76L1410.01 901.53zM1486.07 881.2c-.37.74-1.06 1.81-2.04 3.21-1 1.41-2.04 2.72-3.17 3.95-1.13 1.23-2.2 2.23-3.25 3-1.05.76-2.1 1.25-3.17 1.45-1.06.21-2.18.07-3.32-.39-1.15-.46-2.42-1.33-3.81-2.59l-37.8-34.55c-1.13-1.03-1.71-2.13-1.76-3.3-.05-1.17.23-2.47.82-3.89 1.02-2.4 2.44-4.9 4.29-7.5 1.83-2.59 3.82-5.07 5.97-7.43 6.74-7.39 13.48-11.59 20.21-12.61 6.73-1.01 12.79.94 18.19 5.88 2.61 2.4 4.61 4.98 5.96 7.74 1.35 2.76 2.06 5.65 2.08 8.68.04 3.03-.66 6.16-2.11 9.41-1.45 3.24-3.66 6.5-6.65 9.76l-5.2 5.69L1486.07 881.2zM1464.13 853.48c2.06-2.24 3.11-4.45 3.16-6.6.07-2.16-.98-4.21-3.12-6.17-2.03-1.86-4.17-2.66-6.42-2.41-2.24.26-4.46 1.59-6.66 3.99-.78.86-1.42 1.58-1.91 2.16-.48.59-.94 1.22-1.37 1.91l12.44 11.37L1464.13 853.48zM1485.14 794.42c.56-1.31 1.65-2.99 3.25-5 1.62-2.02 3.44-3.78 5.48-5.3 2.91-2.16 5.79-3.66 8.65-4.49 2.87-.82 5.28-.58 7.27.75 3.29 2.24 7.05 4.91 11.27 8.01 4.21 3.1 8.51 6.32 12.91 9.69 4.41 3.36 8.75 6.68 13.01 9.97 4.26 3.28 8.02 6.2 11.27 8.75-.09 1.33-.65 2.77-1.67 4.3-1.04 1.53-2.5 3.02-4.42 4.45-1.39 1.04-2.65 1.8-3.8 2.29-1.13.48-2.16.72-3.13.7-.96-.01-1.9-.25-2.84-.72-.94-.47-1.92-1.1-2.96-1.86l-6.05-4.84-15.77 11.77c.84 2.09 1.71 4.23 2.63 6.44.93 2.2 1.8 4.35 2.64 6.44-.6.9-1.27 1.78-2.02 2.65-.76.88-1.77 1.79-3.04 2.75-2.97 2.21-5.53 3.33-7.72 3.38-2.18.05-3.94-.83-5.28-2.63-.61-.81-1.1-1.71-1.47-2.7-.37-.98-.82-2.14-1.37-3.46-.76-1.87-1.65-4.24-2.65-7.11-1.01-2.87-2.08-5.98-3.22-9.33-1.14-3.35-2.28-6.81-3.41-10.4-1.14-3.58-2.22-6.97-3.22-10.15-1.02-3.18-1.9-6.02-2.64-8.54C1486.08 797.71 1485.51 795.78 1485.14 794.42zM1503.99 797.87c1.01 3.05 2.12 6.45 3.33 10.2 1.22 3.75 2.56 7.47 4.05 11.15l10.8-8.06c-3.15-2.53-6.26-4.98-9.33-7.34-3.08-2.37-5.85-4.48-8.33-6.34L1503.99 797.87zM1618.31 789.14c-.5 1.35-1.51 2.66-3.04 3.95-1.53 1.29-3.5 2.49-5.95 3.6-2.44 1.11-4.92 1.8-7.43 2.06-2.51.26-5.08-.68-7.72-2.82l-18.87-15.55c-1.92-1.6-3.69-3.13-5.31-4.58-1.62-1.46-3.42-3.17-5.43-5.12l-.54.37c1.87 3.44 3.68 7.01 5.39 10.68 1.71 3.68 3.37 7.31 4.99 10.87l6.97 15.35c-.64.52-1.66 1.23-3.05 2.1-1.39.87-2.81 1.64-4.27 2.3-1.45.66-2.79 1.15-3.99 1.45-1.21.31-2.31.34-3.3.07-.99-.27-1.92-.82-2.79-1.66-.86-.84-1.67-2.09-2.42-3.74l-22.47-49.5c.33-1.74 1.3-3.37 2.92-4.9 1.61-1.53 3.5-2.79 5.68-3.78 2.44-1.1 4.94-1.78 7.5-2.02 2.56-.25 5.11.68 7.66 2.79l18.98 15.5c1.91 1.6 3.68 3.13 5.3 4.58 1.62 1.46 3.42 3.16 5.43 5.12l.45-.33c-1.88-3.44-3.66-6.93-5.35-10.46-1.69-3.54-3.33-7.09-4.95-10.65l-7.27-16.04c.62-.52 1.65-1.23 3.04-2.1 1.39-.88 2.81-1.64 4.27-2.3 2.91-1.32 5.35-1.81 7.33-1.48 1.99.34 3.72 2.12 5.18 5.35L1618.31 789.14z"/></g><path fill="#202647" d="M1780.58,815.06c8.24-18.89-1.05-24.25-23.25-34.09c-22.2-9.83-39.96,26.5-63.38,18.02
			s-64.99,8.48-81.94,12.11c-16.95,3.63-52.48-17.76-60.95-1.61c-8.48,16.15-23.82,67.01-28.66,74.68
			c-4.84,7.67-41.79,48.04-66.1,64.99c-24.32,16.95-9.79,56.92-10.59,68.62c-0.81,11.71-31.89,41.58-15.34,67.01
			c16.55,25.43-6.86,53.69,15.74,67.82c22.61,14.13,53.28,52.07,56.11,3.63c2.83-48.44-18.16-128.68,3.23-161.02
			c21.39-32.34,77.1-107.42,88-119.93c10.9-12.51,22.6-37.95,48.04-50.46c25.43-12.51,50.05,18.05,79.93,4.59
			C1751.28,815.95,1775.21,827.38,1780.58,815.06z"/><path fill="#f54339" d="M1752.01,765.24c-8.83,9.38-21.34,15.09-35.06,15.09c-26.77,0-48.52-21.74-48.52-48.52
			c0-7.75,1.77-14.95,5.03-21.34C1705.12,721.75,1732.44,739.96,1752.01,765.24z"/><path fill="#e69f7e" d="M1978.54,1491.69l329.39,186.83l141.53-344.92h103.71c0,0,43.54,472.95-77.27,652.18
			c-120.81,179.23-628.99-244.05-628.99-244.05L1978.54,1491.69z"/><path fill="#202647" d="M2366.41 2011.48c-12.71 0-26.74-2.1-42.06-6.31-2.68-.74-4.27-3.51-3.53-6.2.75-2.69 3.48-4.26 6.21-3.53 35.83 9.84 63.61 7.46 82.59-7.08 27.28-20.89 27.42-60.29 27.42-60.69-.01-2.79 2.24-5.06 5.03-5.07 0 0 .01 0 .02 0 2.78 0 5.04 2.24 5.05 5.02.01 1.82-.16 44.85-31.37 68.75C2402.62 2006.44 2386.11 2011.48 2366.41 2011.48zM2307.93 1683.56c-.93 0-1.84-.26-2.65-.75l-235.74-145.41c-2.37-1.46-3.1-4.57-1.65-6.95 1.47-2.38 4.57-3.1 6.95-1.65l230.67 142.29 98.49-240.02c1.07-2.58 4.05-3.81 6.58-2.75 2.58 1.05 3.82 4.01 2.76 6.58l-100.75 245.52c-.56 1.37-1.71 2.43-3.11 2.88C2308.99 1683.48 2308.45 1683.56 2307.93 1683.56z"/><path fill="#e23733" d="M1491.96,1435.1c-91.63,219.32,433.52,476.58,469.86,441.6c36.34-34.98,137.28-278.9,163.17-328.03
			C2150.89,1499.54,1588.31,1204.49,1491.96,1435.1z"/><path fill="#202647" d="M1543.74 1635.92c-1.31 0-2.63-.51-3.62-1.53-57.55-59.22-62.94-155.76-63.13-159.84-.14-2.78 2-5.15 4.79-5.29 2.72.06 5.16 2.02 5.28 4.79.05.96 5.44 96.85 60.29 153.3 1.94 2 1.9 5.19-.1 7.14C1546.28 1635.45 1545.02 1635.92 1543.74 1635.92zM1961.82 1881.75c-.08 0-.16 0-.24-.01-206.17-9.75-390.09-212.8-391.93-214.85-1.85-2.08-1.68-5.27.4-7.13 2.05-1.85 5.23-1.7 7.13.39 1.8 2.02 182.96 201.96 384.87 211.5 2.79.13 4.94 2.49 4.8 5.28C1966.73 1879.64 1964.5 1881.75 1961.82 1881.75z"/><g><path fill="#e69f7e" d="M2475.07,1397.97c0.31,3.53,84.64-23.81,84.64-23.81s-15.19-20.24-3.3-51.67
					c11.89-31.43,13.26-103.83,2.2-120.04c-11.07-16.2-16.11-4.45-16.11-4.45s-4-16.83-20.07-18.55
					c-16.08-1.73-16.27,5.62-16.27,5.62s-7.75-11.89-23.8-10.89c-16.05,1-19.18,13-19.18,13s-5.97-11.99-27.52,2.03
					c-21.55,14.03-13.83,23.19-13.83,23.19s-69.6,30.44-22.79,78.9C2445.84,1339.79,2471.95,1362.63,2475.07,1397.97z"/><path fill="#202647" d="M2428.39,1242.07c4.43-2.57,8.84-2.15,9.43-2.09c2.66,0.33,4.56,2.75,4.24,5.41
					c-0.33,2.65-2.71,4.53-5.33,4.24c-0.21-0.01-2.69-0.13-4.54,1.65c-2.04,1.98-2.97,5.84-2.69,11.18c0.14,2.68-1.92,4.98-4.59,5.1
					c-2.67,0.14-4.96-1.91-5.1-4.59c-0.44-8.47,1.52-14.82,5.82-18.84C2426.53,1243.29,2427.46,1242.61,2428.39,1242.07z"/><path fill="#202647" d="M2419.39 1208.23c.06-.03.12-.07.17-.1 2.37-1.25 5.31-.34 6.57 2.03l22.82 43.19c1.24 2.37.13 5.18-2.03 6.57-2.37 1.25-5.31.34-6.57-2.03l-22.82-43.19C2416.32 1212.39 2417.14 1209.54 2419.39 1208.23zM2460.75 1183.01c.5-.29 1.06-.5 1.66-.59 2.64-.43 5.14 1.37 5.57 4.01l7.86 48.52c.43 2.65-1.37 5.14-4.01 5.57-2.65.43-5.14-1.37-5.57-4.01l-7.86-48.53C2458.07 1185.94 2459.06 1183.99 2460.75 1183.01zM2502.36 1179.15c.71-.41 1.52-.65 2.39-.66 2.68-.03 4.88 2.12 4.9 4.81l.51 46.57c.04 2.69-2.11 4.9-4.81 4.9-2.68.04-4.88-2.12-4.9-4.8l-.51-46.57C2499.92 1181.59 2500.9 1180 2502.36 1179.15zM2540.71 1189.59c1.11-.64 2.46-.85 3.79-.47 2.58.74 4.06 3.44 3.32 6.01l-10.72 37.07c-.75 2.59-3.45 4.07-6.01 3.32-2.58-.75-4.06-3.44-3.32-6.01l10.72-37.07C2538.86 1191.18 2539.67 1190.19 2540.71 1189.59z"/></g><g><path fill="#db8f71" d="M2195.5,925.66c0,0-33.89-20.2-24.81-29.89c9.08-9.69,40.57,5.75,39.96-0.91
				c-0.61-6.66,9.08-45.41,32.09-36.33c0,0,5.45-18.17,28.46-16.95c0,0,10.9-20.59,29.67-13.93c0,0,10.9-13.93,25.43-6.66
				c14.53,7.27,36.94,78.11,23.01,81.74c-13.93,3.63-27.25-32.7-27.25-32.7s13.93,52.07-7.87,40.57
				c-21.8-11.5-28.46-34.05-28.46-34.05s17.56,44.95,0,45.55c-17.56,0.61-27.85-25.43-27.85-25.43s20.59,35.12,0.61,37.54
				c-19.98,2.42-30.37-25.01-30.37-25.01L2195.5,925.66z"/><path fill="#202647" d="M2234.15 922.83c-.95 0-1.85-.53-2.28-1.44l-14.63-30.9c-.6-1.26-.06-2.76 1.19-3.36 1.29-.57 2.78-.05 3.36 1.2l14.63 30.9c.6 1.26.06 2.76-1.19 3.36C2234.88 922.75 2234.52 922.83 2234.15 922.83zM2261.42 911.73c-1.04 0-2.01-.65-2.38-1.68l-13.23-37.16c-.47-1.32.22-2.76 1.53-3.22 1.35-.51 2.76.22 3.22 1.53l13.23 37.16c.47 1.32-.22 2.76-1.53 3.22C2261.98 911.69 2261.69 911.73 2261.42 911.73zM2289.06 888.84c-.97 0-1.88-.55-2.31-1.49-.49-1.11-12.24-27.29-13.47-30.55-.48-1.31.18-2.76 1.48-3.25 1.31-.52 2.76.17 3.25 1.47.94 2.49 9.14 20.88 13.36 30.26.56 1.27 0 2.76-1.27 3.34C2289.76 888.77 2289.4 888.84 2289.06 888.84zM2324.8 879.16c-1.02 0-1.98-.63-2.37-1.64-4.97-13.31-12.78-33.94-13.93-36.22-.62-1.25-.12-2.76 1.12-3.39 1.25-.61 2.77-.12 3.39 1.13 1.63 3.25 12.86 33.3 14.14 36.71.48 1.31-.18 2.76-1.48 3.25C2325.39 879.11 2325.09 879.16 2324.8 879.16z"/></g></g><path fill="#f4e1e1" d="M3328.07,2730.45H450.53c-10.88,0-19.7-8.82-19.7-19.7c0-10.88,8.82-19.7,19.7-19.7h2877.54
		c10.88,0,19.7,8.82,19.7,19.7C3347.77,2721.62,3338.95,2730.45,3328.07,2730.45z"/></svg>