<svg xmlns="http://www.w3.org/2000/svg" enable-background="new 0 0 2793 2793" viewBox="0 0 2793 2793"><path d="M2791.429,2208.983c-2.901-0.061-5.805-0.229-8.704-0.168c-37.078,0.783-74.157,1.561-111.233,2.415
			c-44.71,1.03-89.417,2.144-134.127,3.168c-2.31,0.053-4.807,0.752-7.125-0.574c0.564-1.056,0.733-1.87,1.23-2.23
			c10.753-7.787,16.978-19.046,21.525-30.846c7.694-19.967,13.602-40.568,18.707-61.39c8.567-34.945,14.727-70.372,21.545-105.666
			c5.167-26.744,10.029-53.547,15.063-80.317c3.624-19.273,7.682-38.473,10.882-57.816c5.099-30.82,9.716-61.72,14.402-92.606
			c3.875-25.531,6.523-51.2,7.422-77.015c1.027-29.485-0.84-58.859-3.794-88.188c-3.471-34.453-10.265-68.264-20.587-101.266
			c-16.558-52.938-43.986-99.478-83.831-138.381c-34.498-33.682-72.617-62.612-114.374-86.73
			c-8.489-4.904-17.018-9.737-25.528-14.604c-4.878-2.79-4.773-2.769-3.603-8.148c0.612-2.815,0.997-5.718,1.111-8.596
			c0.278-6.99-1.408-13.706-3.343-20.348c-4.526-15.538-12.124-29.468-21.909-42.319c-14.981-19.676-28.695-40.203-41.361-61.461
			c-23.962-40.218-38.651-83.556-44.516-129.935c-2.827-22.354-6.474-44.572-10.599-66.718c-2.461-13.209-5.005-26.404-7.283-39.645
			c-3.818-22.193-6.173-44.617-10.674-66.709c-8.139-39.946-19.296-78.959-34.915-116.675
			c-18.481-44.628-44.873-83.715-80.157-116.837c-48.473-45.503-105.467-75.299-169.311-92.586
			c-27.135-7.347-54.522-7.545-82.111-2.604c-21.225,3.802-41.368,10.929-61.159,19.175c-33.155,13.814-62.875,33.382-90.439,56.082
			c-37.916,31.226-67.062,69.329-86.39,114.696c-0.203,0.477-0.808,0.784-1.33,1.266c-0.742-0.885-1.638-1.608-2.091-2.546
			c-8.294-17.16-20.159-31.932-31.693-46.869c-27.111-35.112-55.985-68.783-84.765-102.524c-4.477-5.249-9.256-10.259-14.118-15.159
			c-18.705-18.854-38.378-36.654-58.644-53.817c-26.196-22.185-54.188-41.206-86.271-54.3
			c-30.266-12.352-61.174-20.51-93.906-21.692c-29.145-1.052-57.188,3.68-83.954,15.315c-18.055,7.848-34.594,18.364-50.901,29.322
			c-46.232,31.066-86.918,68.058-121.251,112.007c-14.773,18.91-29.266,38.018-43.009,57.688
			c-15.632,22.373-29.624,45.722-41.33,70.401c-5.29,11.153-10.557,22.319-15.658,33.558
			C887.615,782.25,858.13,847.81,828.23,913.18c-22.585,49.376-49.753,96.085-82.797,139.289
			c-23.016,30.094-48.62,57.885-74.888,85.109c-4.791,4.966-9.456,10.081-13.83,15.413c-3.249,3.96-6.758,7.553-10.656,10.861
			c-9.977,8.469-19.922,16.978-29.719,25.654c-21.335,18.894-39.53,40.618-56.488,63.413
			c-32.399,43.551-59.814,90.193-85.066,138.139c-46.608,88.496-85.399,180.431-120.059,274.161
			c-41.968,113.495-77.099,229.1-106.135,346.551c-13.684,55.353-25.87,111.045-36.127,167.151
			c-1.098,6.007-1.355,12.299-4.295,18.469c-5.66,0-11.438,0.088-17.212-0.014c-40.353-0.713-80.707-1.392-121.057-2.233
			c-23.622-0.492-47.237-1.266-70.856-1.913c0,4.364,0,8.727,0,13.091c7.149,1.633,14.44,1.218,21.673,1.354
			c25.443,0.48,50.892,0.71,76.336,1.182c68.333,1.269,136.665,2.665,204.999,3.914c57.067,1.043,114.137,1.888,171.204,2.934
			c61.427,1.126,122.851,2.469,184.281,3.455c6.033,0.097,10.017,1.914,13.628,6.737c10.7,14.292,23.141,27.107,35.922,39.5
			c25.019,24.258,53.556,43.362,85.871,56.648c16.014,6.584,32.742,8.965,49.987,9.497c21.115,0.652,41.156-3.097,60.363-11.794
			c10.266-4.648,20.297-9.723,29.889-15.636c21.662-13.354,42.978-27.205,62.567-43.545c4.184-3.49,8.894-6.402,12.8-10.164
			c7.421-7.145,15.873-10.719,26.299-10.584c12.346,0.16,24.704-0.784,37.053-0.705c21.45,0.137,42.886-0.039,64.334-0.505
			c43.593-0.947,87.194-1.531,130.792-2.18c57.797-0.86,115.596-1.653,173.394-2.45c43.621-0.601,87.243-1.163,130.865-1.739
			c2.908-0.038,5.818-0.115,8.724-0.037c2.919,0.079,3.564,0.886,3.516,4.056c-0.24,15.628-0.521,31.255-0.724,46.883
			c-0.17,13.13,0.877,26.098,4.465,38.837c6.848,24.308,21.735,42.421,42.777,55.676c15.684,9.879,33.2,14.207,51.501,16.123
			c33.602,3.518,64.933-3.922,94.807-18.898c7.518-3.768,14.33-8.619,20.763-13.954c25.041-20.765,42.522-46.486,50.73-78.196
			c2.834-10.949,3.752-22.189,5.02-33.374c0.201-1.777,0.344-3.561,0.478-4.962c2.282-2.699,5.025-1.875,7.422-1.939
			c18.533-0.496,37.07-0.848,55.606-1.266c56.697-1.28,113.393-2.625,170.091-3.841c55.972-1.199,111.948-2.235,167.921-3.409
			c68.33-1.434,136.658-2.934,204.987-4.411c66.148-1.43,132.297-2.835,198.444-4.312c42.523-0.949,85.043-2.001,127.563-3.041
			c2.161-0.053,4.314-0.428,6.471-0.654c0.056-0.077,0.111-0.135,0.166-0.199
			C2793.383,2217.177,2793.609,2213.056,2791.429,2208.983z M2202.315,901.669c4.036,16.601,6.289,33.53,9.195,50.336
			c4.887,28.264,9.659,56.532,17.471,84.201c11.705,41.456,31.042,78.938,57.921,112.537c7.49,9.362,15.373,18.411,23.035,27.636
			c7.98,9.608,13.859,20.378,17.768,32.244c0.919,2.789,1.774,5.524,1.199,8.511c-0.308,1.6-1.247,2.794-2.757,2.854
			c-0.705,0.028-1.996-1.163-2.119-1.943c-2.643-16.806-11.612-30.305-22.24-42.955c-6.78-8.07-13.772-15.971-20.314-24.228
			c-29.773-37.578-49.979-79.811-61.394-126.355c-5.369-21.889-9.309-44.039-13.075-66.232c-1.944-11.456-3.849-22.919-5.666-34.396
			c-0.566-3.574-0.784-7.203-1.161-10.806c-1.574-2.899,0.262-6.404-1.643-9.245c-0.014-0.731-0.029-1.462-0.043-2.194
			C2199.779,900.403,2201.054,900.271,2202.315,901.669z M2197.142,1211.176c-6.965,15.277-16.356,29.087-26.078,42.677
			c-15.231,21.291-32.083,41.283-49.126,61.126c-18.914,22.02-41.395,39.699-66.469,54.023
			c-13.208,7.545-26.959,14.176-40.666,20.805c-15.519,7.505-32.275,10.809-49.2,13.225c-13.654,1.949-27.337,3.701-41.02,5.443
			c-16.373,2.085-32.63,0.399-48.863-1.714c-2.519-0.328-5.012-0.852-7.534-1.146c-11.336-1.322-21.818-5.052-31.76-10.633
			c-17.197-9.653-32.552-21.816-47.527-34.496c-8.446-7.152-14.608-16.115-19.363-26.045c-5.487-11.461-7.132-23.556-5.415-36.094
			c1.18-8.611,4.804-15.927,12.006-21.172c0.88-0.641,1.713-1.347,2.573-2.016c11.794-9.184,11.645-8.996,23.547,0.46
			c28.88,22.944,60.104,41.852,95.01,54.286c10.981,3.912,22.316,6.244,33.817,8.026c11.266,1.745,21.6-0.766,31.569-5.771
			c10.187-5.114,18.819-12.28,26.877-20.211c15.629-15.385,28.639-32.892,40.137-51.432c15.108-24.361,29.659-49.075,42.751-74.608
			c17.192,9.36,34.955,9.236,53.074,3.196c22.972,5.292,45.952,10.547,68.908,15.907
			C2198.602,1205.995,2199.01,1207.08,2197.142,1211.176z M1762.471,1193.033c-0.33-1.648,0.444-2.765,2.028-3.254
			c1.6-0.494,2.84,0.115,3.508,1.578c0.695,1.521-0.783,3.859-2.471,4.113C1763.964,1195.347,1762.793,1194.64,1762.471,1193.033z
			 M2077.981,1153.831c1.229,16.134,11.637,25.569,29.865,25.209c-0.15-0.013,1.643,0.037,3.384,0.364
			c0.483,0.091,1.047,0.964,1.145,1.55c0.101,0.601-0.141,1.457-0.553,1.909c-1.271,1.394-3.007,1.961-4.845,2.146
			c-11.855,1.198-21.429-3.047-28.326-12.649c-9.96-13.868-8.815-35.693,2.261-48.772c0.445-0.525,1.11-0.98,1.761-1.178
			c0.635-0.194,1.688-0.3,2.016,0.056c0.654,0.708,1.495,1.946,1.264,2.63c-0.566,1.681-1.664,3.192-2.604,4.738
			C2078.85,1137.231,2077.33,1145.274,2077.981,1153.831z M2115.683,1170.438c-0.004-1.698,0.837-2.725,2.446-2.941
			c1.51-0.203,2.801,0.273,3.315,1.883c0.493,1.545-1.243,3.927-2.858,3.693C2117.169,1172.868,2115.917,1172.077,2115.683,1170.438
			z M2190.111,1174.908c0.451,1.039,0.156,2.182-0.858,2.801c-0.523,0.319-1.453,0.507-1.947,0.256
			c-5.14-2.603-8.074-7.274-10.441-12.167c-5.75-11.89-9.036-24.44-9.036-40.281c0.7-6.144,1.64-14.792,2.679-23.429
			c1.385-11.515,2.737-23.036,4.321-34.525c0.854-6.192,0.809-12.277-0.556-18.371c-0.314-1.404-0.603-2.876-0.498-4.287
			c0.067-0.903,0.768-2.365,1.38-2.474c0.818-0.145,2.394,0.567,2.66,1.279c1.652,4.417,2.973,8.965,2.935,13.744
			c-0.031,3.987,0.017,8.006-0.453,11.953c-1.585,13.319-3.415,26.608-5.094,39.917c-1.78,14.112-2.688,28.208,1.915,42.021
			c2.528,7.585,5.286,15.073,11.145,20.909C2189.019,1173.005,2189.688,1173.935,2190.111,1174.908z M1831.83,575.842
			c2.346-2.267,4.594-4.767,7.312-6.497c15.051-9.578,30.639-18.072,48.262-22.028c10.717-2.406,21.625-2.479,30.958-2.512
			c15.366,0.788,29.266,0.935,42.704,4.436c44.35,11.554,84.298,31.417,117.141,63.976c44.577,44.192,75.084,96.681,91.64,157.252
			c5.174,18.931,8.965,38.171,12.68,57.42c0.887,4.598,1.888,9.3,0.924,14.049c-0.116,0.571-0.947,1.477-1.325,1.42
			c-0.986-0.148-2.383-0.503-2.742-1.216c-0.623-1.236-0.584-2.805-0.827-4.233c-4.82-28.296-10.409-56.427-19.401-83.743
			c-17.355-52.717-45.824-98.607-85.365-137.552c-21.754-21.427-46.995-37.602-75.35-48.925
			c-14.153-5.652-28.175-11.785-43.384-14.094c-21.624-3.283-43.312-5.275-65.071-1.168c-3.909,0.738-7.865,1.61-11.556,3.043
			c-10.832,4.206-21.327,9.181-31.477,14.854c-4.471,2.5-8.382,5.734-12.017,9.333c-1.308,1.295-3.103,2.575-4.614,0.723
			C1828.859,578.591,1830.586,577.044,1831.83,575.842z M2113.769,985.431c-0.574,0.326-1.218,1.007-1.746,0.926
			c-1.009-0.155-2.182-0.505-2.888-1.188c-11.919-11.523-26.478-19.018-40.866-26.729c-16.958-9.088-34.88-16.108-52.36-24.08
			c-17.152-7.823-34.283-15.701-51.259-23.896c-14.392-6.947-28.194-14.997-41.24-24.259
			c-27.097-19.234-48.719-43.399-64.672-72.556c-4.706-8.602-8.845-17.496-10.776-27.219c-0.275-1.383-0.298-2.864-0.125-4.26
			c0.06-0.483,1.049-0.882,1.652-1.257c0.695-0.433,1.334-0.22,1.777,0.584c0.521,0.946,1.232,1.867,1.453,2.887
			c3.052,14.099,10.093,26.369,17.747,38.3c16.708,26.044,37.918,47.645,64.057,64.346c13.781,8.805,28.046,16.721,42.904,23.524
			c23.732,10.866,47.534,21.582,71.336,32.296c16.896,7.606,33.313,16.091,48.864,26.195c5.489,3.566,10.818,7.344,15.09,12.393
			C2113.676,982.572,2114.205,983.883,2113.769,985.431z M1826.507,881.999c4.483-9.476,7.723-19.54,11.537-29.333
			c0.519-1.334,0.94-2.724,1.635-3.96c0.197-0.351,1.625-0.522,1.764-0.307c0.775,1.198,1.361,2.526,1.95,3.836
			c11.417,25.379,28.608,45.925,50.685,62.887c31.656,24.323,66.418,42.658,103.691,56.571c10.854,4.052,21.546,8.541,32.312,12.83
			c0,0.001,0.001,0.003,0.001,0.004c0-0.001,0.001-0.002,0.001-0.003c4.118,0.418,7.891,1.743,11.204,4.276c0,0,0,0,0,0c0,0,0,0,0,0
			c1.241,0.123,2.482,0.246,3.723,0.369c1.552,0.776,3.504,0.56,4.81,1.944l0.151,0.068c0.479,0.255,0.713,0.599,0.77,1.009
			c1.174,0,2.321,0.123,3.309,0.993c0.865,0.64,1.647,1.475,2.609,1.891c15.365,6.643,28.068,16.436,36.927,30.869
			c0.936,1.525,2.188,2.873,3.4,4.205c0.464,0.51,1.228,0.745,1.891,1.126c1.859-2.611,3.512-5.395,5.605-7.796
			c10.817-12.407,26.704-11.318,35.76,2.388c4.282,6.481,6.571,13.79,7.535,21.358c1.901,14.919,1.088,29.703-4.25,43.948
			c-3.205,8.552-7.333,16.569-14.812,22.321c-4.49,2.62-7.488-1.001-10.892-2.681c-19.212-9.478-38.967-3.487-49.21,15.394
			c-5.862,10.807-8.508,22.259-5.005,34.622c1.243,4.389,3.29,9.067-0.075,13.555c-12.633,24.136-26.272,47.707-40.307,71.042
			c-11.82,19.654-24.994,38.348-41.058,54.853c-5.846,6.006-12.111,11.501-19.082,16.191c-10.733,7.221-22.215,9.985-35.165,7.484
			c-13.968-2.698-27.625-6.327-40.576-12.136c-28.96-12.989-56.004-29.164-80.324-49.69c-16.519-13.942-30.605-29.977-41.645-48.617
			c-1.689-5.188,2.41-7.952,4.843-11.353c10.537-14.724,11.131-30.62,1.575-44.692c-8.627-12.706-23.966-18.201-40.343-14.669
			c-4.49,0.968-8.923,3.455-13.729,1.236c-9.472,0.323-16.711-4.326-22.813-10.847c-2.936-3.137-5.356-6.895-7.411-10.695
			c-8.512-15.738-11.871-32.636-10.414-50.441c0.537-6.556,2.168-12.872,5.828-18.499c4.761-7.321,11.553-9.634,19.76-6.738
			c3.859,1.361,7,3.701,9.779,6.68c1.405,1.506,1.91,4.07,4.566,4.216c0.276-0.143,0.737-0.245,0.762-0.413
			c2.541-17.065,10.768-31.415,21.342-44.624c3.176-3.967,6.374-7.937,9.829-11.657
			C1781.654,965.8,1806.08,925.176,1826.507,881.999z M1731.276,1263.108c-0.547-4.308-1.523-8.563-2.357-12.833
			c-0.208-1.065-0.671-2.078-0.906-3.14c-0.351-1.586,0.094-2.813,1.816-3.276c1.8-0.484,2.805,0.805,3.379,2.013
			c2.705,5.69,3.12,11.899,3.753,17.398c0.167,7.231-2.161,12.743-7.238,16.978c-5.698,4.753-12.175,7.834-19.619,8.606
			c-1.116,0.115-2.043-0.585-2.358-1.775c-0.335-1.265,0.414-2.168,1.381-2.583c1.648-0.708,3.453-1.041,5.132-1.687
			c3.736-1.435,7.335-3.125,10.555-5.58C1729.508,1273.651,1732.031,1269.051,1731.276,1263.108z M1710.362,1186.514
			c-2.419-11.596,0.694-22.295,6.564-32.31c0.327-0.558,1.086-1.024,1.731-1.188c0.616-0.156,1.488-0.062,1.99,0.29
			c0.515,0.361,1.135,1.299,0.99,1.755c-0.761,2.383-1.654,4.737-2.681,7.02c-2.907,6.46-3.702,13.228-3.274,20.227
			c1.122,18.354,17.61,25.034,29.863,21.5c3.803-1.097,7.59-2.253,11.421-3.244c0.528-0.136,1.53,0.366,1.847,0.868
			c0.581,0.917,0.567,2.048-0.408,2.836c-0.84,0.679-1.698,1.379-2.654,1.863c-5.303,2.686-10.03,3.686-16.849,3.674
			C1724.911,1210.387,1713.527,1201.685,1710.362,1186.514z M1804.704,815.02c4.014-10.528,7.401-21.253,7.892-32.655
			c0.031-0.725,0.112-1.448,0.178-2.172c0.172-1.882,0.833-3.562,2.488-4.571c1.117-0.682,2.943,2.562,2.799,5.061
			c-0.908,13.526-4.266,26.459-9.238,39.029c-6.965,17.612-15.712,34.304-26.165,50.064c-9.63,14.517-19.566,28.832-29.485,43.155
			c-10.343,14.936-19.776,30.414-28.439,46.378c-6.587,12.14-12.255,24.683-16.946,37.668c-0.981,2.716-1.582,5.607-3.707,7.731
			c-0.43,0.429-1.377,0.671-1.96,0.519c-0.518-0.136-1.101-0.882-1.237-1.458c-0.524-2.217,0.289-4.27,0.978-6.348
			c4.122-12.425,9.393-24.352,15.446-35.947c9.248-17.716,19.596-34.762,30.947-51.211c10.102-14.638,20.254-29.246,30.091-44.062
			C1789.014,850.134,1797.829,833.051,1804.704,815.02z M1629.218,866.181c9.461-39.946,20.819-79.264,37.742-116.823
			c13.223-29.347,30.375-56.138,50.973-80.793c14.915-17.853,30.488-35.109,46.854-51.643c3.069-3.1,5.491-3.908,6.201-2.271
			c1.114,2.567-0.849,3.982-2.253,5.521c-9.791,10.735-19.447,21.6-29.454,32.131c-43.967,46.27-72.846,100.958-90.491,161.899
			c-4.639,16.024-8.717,32.21-13.082,48.314c-0.662,2.44-1.428,4.856-2.264,7.241c-0.372,1.06-1.261,1.674-2.49,1.633
			c-0.544-0.322-1.519-0.583-1.591-1C1629.124,869.014,1628.903,867.508,1629.218,866.181z M1622.157,978.15
			c0.007-1.794,0.129-3.62,0.495-5.369c0.222-1.06,1.233-1.789,2.427-1.459c0.557,0.154,1.34,0.766,1.396,1.245
			c0.298,2.497,0.508,5.016,0.543,7.531c0.182,13.063,0.174,26.131,0.465,39.192c0.931,41.815,5.62,83.206,14.49,124.094
			c1.071,4.937,2.769,9.736,3.963,14.651c0.188,0.774-0.549,2.276-1.256,2.619c-0.687,0.333-2.291-0.072-2.793-0.707
			c-2.533-3.199-3.593-7.096-4.355-11.008c-2.844-14.586-6.029-29.125-8.251-43.808c-4.728-31.243-7.512-62.674-7.145-94.319
			C1622.136,999.925,1622.115,989.037,1622.157,978.15z M1318.84,478.322c1.786,0.105,3.626,0.349,5.312,0.921
			c4.118,1.398,8.226,2.865,12.225,4.571c20.753,8.855,40.796,19.149,59.136,32.3c43.447,31.15,85.319,64.276,123.886,101.405
			c14.165,13.637,27.326,28.171,38.502,44.406c9.962,14.471,17.857,29.921,21.686,47.199c1.808,8.162,3.072,16.419,3.129,26.281
			c0.16,4.048-0.758,9.416-2.485,14.612c-0.794,2.39-1.974,4.761-4.493,5.902c-0.563,0.255-1.481,0.177-2.031-0.123
			c-0.541-0.295-0.892-1.032-1.186-1.643c-0.128-0.265,0.006-0.75,0.173-1.051c6.456-11.641,4.562-24.018,2.794-36.211
			c-2.163-14.913-7.954-28.601-15.589-41.543c-9.103-15.43-20.409-29.146-32.694-42.087c-13.022-13.718-26.81-26.651-41.181-38.937
			c-27.349-23.38-55.306-46.02-84.403-67.198c-25.064-18.242-51.983-33.16-81.169-43.823c-1.001-0.366-2.071-0.68-2.914-1.289
			c-0.467-0.337-0.67-1.22-0.743-1.884C1316.634,478.675,1317.845,478.264,1318.84,478.322z M1453.649,877.581
			c2.522-0.042,5.095-0.08,7.551-0.583c39.819-8.155,72.846-27.831,99.223-58.717c1.178-1.379,2.21-2.882,3.365-4.282
			c2.895-3.511,4.848-4.471,5.823-2.914c1.469,2.346,0.007,4.114-1.243,5.867c-1.262,1.771-2.545,3.541-3.963,5.188
			c-28.265,32.828-63.481,53.532-106.329,60.929c-2.886,0.498-5.713,0.905-8.596-0.007c-3.078-0.973-4.755-3.643-3.81-6.752
			c0.625-2.058,1.512-4.084,2.585-5.95c14.082-24.505,22.795-50.872,27.433-78.665c0.239-1.431,0.278-2.934,0.77-4.271
			c0.346-0.939,1.232-1.709,2.538-1.525c1.358,0.191,1.599,1.227,1.724,2.239c0.132,1.071,0.03,2.17,0.03,4.718
			c-1.035,5.366-2.1,12.184-3.688,18.877c-4.877,20.559-11.964,40.299-22.478,58.715c-0.896,1.569-1.821,3.161-2.396,4.857
			C1451.865,876.252,1452.293,877.604,1453.649,877.581z M1261.673,907.354c2.034-1.49,4.173-2.852,6.345-4.137
			c23.457-13.873,45.938-29.183,67.203-46.22c26.959-21.598,52.132-45.152,75.713-70.391c4.696-5.026,8.915-10.496,13.491-15.64
			c0.534-0.6,1.939-0.472,2.951-0.56c0.201-0.018,0.451,0.522,0.833,0.997c-0.161,0.867-0.049,2.104-0.593,2.88
			c-2.286,3.262-4.611,6.523-7.213,9.533c-4.747,5.49-9.55,10.948-14.593,16.164c-36.469,37.724-76.215,71.488-120.752,99.415
			c-5.526,3.465-11.187,6.721-16.87,9.924c-1.524,0.859-3.334,1.279-5.065,1.664c-0.567,0.126-1.524-0.321-1.909-0.813
			C1260.466,909.211,1260.794,907.999,1261.673,907.354z M1359.82,906.802c24.576-22.375,45.675-47.801,65.643-74.238
			c1.75-2.317,3.497-4.636,5.245-6.954c5.262,0.623,2.067,4.088,2.166,6.447c-1.321,11.391-5.678,21.707-11.248,31.579
			c-5.563,9.858-12.406,18.782-19.925,27.22c-2.164,2.428-4.393,4.915-5.971,7.723c-2.604,4.633-0.826,9.4,3.844,11.956
			c4.002,2.19,8.365,2.606,12.712,2.256c7.233-0.582,14.453-1.439,21.641-2.448c40.123-5.636,78.873-16.155,115.844-32.894
			c3.632-1.644,7.136-3.58,10.652-5.468c3.437-1.845,6.813-3.804,9.976-5.578c2.748,2.009,1.874,4.308,1.784,6.273
			c-1.176,25.819-4.425,51.415-9.185,76.79c-5.432,28.95-12.903,57.375-23.714,84.841c-4.394,11.162-9.54,21.958-15.206,32.542
			c-8.93,16.68-21.618,30.023-36.272,41.623c-5.722,4.53-11.919,8.189-19.804,7.835c-5.693-0.255-10.073,3.635-14.938,5.931
			c-7.9-20.225-14.915-23.796-31.408-15.573c-2.334-2.53-1.06-6.125-2.279-8.945c-1.184-2.738-2.781-5.1-5.167-6.875
			c-2.647-1.97-5.461-3.66-8.883-3.764c-2.897-0.088-5.8-0.018-9.033-0.018c-1.582-2.605-0.267-5.945-0.605-9.113
			c-1.562-14.651-12.997-22.225-27.246-18.002c-5.716,1.694-10.51,4.885-15.03,8.583c-11.318,9.262-21.103,19.974-29.83,31.682
			c-6.872,9.22-7.419,9.316-17.171,2.946c-5.507-3.597-10.512-7.847-14.925-12.684c-5.63-6.171-10.951-12.624-16.375-18.982
			c-1.414-1.657-2.492-3.669-4.113-5.067c-3.208-2.765-6.73-3.924-11.001-1.771c-3.63,1.829-6.781,3.972-9.484,7.086
			c-6.907,7.96-14.124,15.651-21.135,23.522c-11.396,12.792-21.979,26.15-29.017,41.97c-3.705,8.328-6.528,16.888-8.145,25.894
			c-1.506,8.388-1.045,16.625,0.576,24.908c0.885,4.521,0.735,4.503-3.497,6.352c-9.009,3.935-18.119,4.875-27.85,1.021
			c-0.733-6.5,1.516-12.704,2.724-18.972c5.294-27.458,11.432-54.709,19.203-81.605c8.441-29.212,21.46-56.233,37.35-82.005
			c3.93-6.374,9.497-10.959,15.793-14.708C1280.686,971.821,1321.801,941.414,1359.82,906.802z M1426.231,1302.981
			c0.757,11.252,2.869,22.322,5.215,33.345c3.779,17.75,8.007,35.4,10.787,53.365c5.156,33.315,1.569,65.117-15.049,94.975
			c-7.942,14.271-15.388,28.817-23.284,43.113c-3.827,6.929-8.357,13.428-14.483,19.082c-4.732-3.338-8.031-7.707-11.486-11.835
			c-4.222-5.045-8.865-9.598-13.906-13.795c-5.862-4.881-11.499-10.045-17.502-14.742c-11.236-8.792-23.604-15.653-37.293-19.777
			c-2.969-0.894-4.282-2.127-4.667-4.946c-0.934-6.839-2.048-13.655-2.88-20.506c-2.184-17.978-7.951-34.523-18.443-49.464
			c-9.45-13.458-20.592-25.386-32.024-37.089c-6.865-7.027-13.469-14.263-19.517-22.015c-4.741-6.076-8.462-12.69-10.917-19.968
			c-9.659-28.632-13.646-57.845-9.24-87.994c1.262-8.635,2.255-17.301,4.973-25.619c1.234-3.775,2.844-7.451,4.578-11.03
			c1.43-2.951,3.572-5.462,6.137-7.565c1.766-1.447,3.739-2.486,5.984-1.522c2.173,0.933,3.281,2.809,3.112,5.239
			c-0.302,4.343-0.604,8.688-1.024,13.021c-0.42,4.334-1.117,8.643-1.462,12.981c-1.684,21.149,5.874,39.163,19.071,55.154
			c2.522,3.057,5.222,6.183,8.44,8.409c8.324,5.758,16.436,1.808,16.713-8.293c0.269-9.802,0.09-19.58,1.357-29.363
			c5.75-44.396,18.701-86.426,40.309-125.742c10.444-19.004,24.027-35.39,40.129-49.781c3.811-3.406,7.884-6.443,12.893-7.925
			c5.02-1.485,8.771,0.84,9.445,5.893c0.389,2.919,0.29,5.836-0.822,8.591c-1.493,3.697-2.771,7.546-4.767,10.965
			c-14.376,24.617-23.724,51.342-33.028,78.089c-4.649,13.366-9.235,26.754-13.823,40.141c-0.703,2.05-1.502,4.111-1.842,6.233
			c-0.584,3.645,1.299,6.697,4.455,7.817c2.451,0.87,5.675-0.426,7.291-3.394c1.379-2.531,2.413-5.275,3.371-8.005
			c7.33-20.883,14.584-41.793,21.906-62.679c3.122-8.904,6.318-17.782,10.819-26.12c4.872-9.025,10.89-17.182,18.495-24.085
			c2.132-1.935,4.521-3.645,6.985-5.139c2.458-1.49,5.55,0.358,5.354,3.127c-0.153,2.15-0.363,4.426-1.183,6.379
			c-14.461,34.474-25.558,70.266-40.899,104.391c-1.488,3.309-3.34,6.454-4.8,9.774c-0.712,1.62-1.203,3.456-1.265,5.212
			c-0.081,2.285,1.054,4.22,3.158,5.322c2.497,1.309,5.195,1.115,7.107-0.74c1.767-1.716,3.006-4.067,4.168-6.299
			c6.207-11.929,11.375-24.313,16.054-36.915c4.8-12.925,9.943-25.727,14.548-38.72c3.06-8.633,7.634-16.439,12.014-24.372
			c2.131-3.859,5.174-7.006,8.616-9.745c4.171-3.319,7.909-4.033,10.889-1.857c3.438,2.511,3.74,6.021,2.497,9.77
			c-1.939,5.847-3.767,11.744-6.009,17.477c-7.399,18.924-15.478,37.584-21.617,56.99c-4.268,13.489-8.514,26.991-14.487,39.87
			c-1.056,2.276-2.187,4.581-2.092,7.259c0.103,2.882,1.548,4.755,4.018,5.964c2.246,1.1,5.089,0.519,6.828-1.736
			c1.307-1.695,2.347-3.647,3.229-5.61c4.613-10.266,8.816-20.691,12.02-31.501c5.577-18.815,12.848-37.023,20.018-55.261
			c3.341-8.5,8.744-15.88,13.483-23.608c1.934-3.154,4.788-5.474,8.138-7.051c2.703-1.272,5.757-0.499,7.953,1.718
			c3.565,3.598,4.947,7.746,4.189,12.887c-1.973,13.39-6.096,26.114-11.126,38.615c-6.506,16.17-13.711,32.015-21.214,47.746
			C1429.846,1253.113,1424.509,1277.386,1426.231,1302.981z M1198.024,1489.16c-2.844-10.108-6.129-20.072-7.857-30.5
			c-1.931-11.655-1.096-23.187,0.667-34.667c2.32-15.106,6.629-29.713,12.954-43.646c2.087-4.598,4.688-8.995,7.402-13.263
			c1.885-2.965,4.365-5.552,6.265-7.917c2.471,0.029,3.267,1.3,4.142,2.438c7.094,9.227,15.193,17.538,23.303,25.855
			c9.121,9.354,17.9,19,25.61,29.61c8.016,11.03,13.699,23.011,16.333,36.403c1.889,9.6,3.788,19.198,5.573,28.817
			c0.705,3.803,0.246,4.766-3.624,6.721c-10.242,5.175-18.299,12.985-25.917,21.294c-11.298,12.321-21.294,25.678-31.024,39.255
			c-8.45,11.791-17.171,23.387-25.766,35.075c-0.654,0.89-1.419,1.62-2.593,1.374c-1.284-0.269-1.447-1.474-1.739-2.493
			c-0.199-0.695-0.198-1.452-0.432-2.131c-4.643-13.465-4.174-26.913-0.796-40.637
			C1204.794,1523.402,1202.807,1506.162,1198.024,1489.16z M1265.638,1275.223c-0.091,0.549-0.726,1.283-1.243,1.41
			c-0.529,0.13-1.437-0.198-1.8-0.638c-12.711-15.396-18.039-32.891-14.651-52.737c1.103-6.462,1.861-12.926,1.86-19.486
			c-0.001-7.585-2.929-13.264-10.063-16.568c-7.313-3.386-14.044-2.717-20.333,2.326c-0.566,0.454-1.1,0.948-1.67,1.396
			c-5.524,4.337-8.577,3.648-11.283-2.909c-2.111-5.116-2.417-10.525-1.883-16.041c1.615-16.667,7.842-31.617,17.07-45.355
			c4.039-6.012,8.503-11.797,13.273-17.248c9.059-10.352,18.479-20.39,28.146-30.993c13.661,16.493,26.956,32.799,46.763,42.13
			c-7.837,14.093-14.793,27.993-20.417,42.54c-10.105,26.14-17.706,52.974-21.857,80.686c-1.393,9.299-1.345,18.815-1.928,28.234
			C1265.556,1273.052,1265.813,1274.169,1265.638,1275.223z M863.226,973.367c0.77-1.221,1.731-2.329,2.67-3.435
			c36.858-43.388,68.153-90.445,93.294-141.553c38.46-78.184,80.662-154.427,120.334-231.983
			c13.087-25.583,27.967-50.101,45.736-72.763c16.46-20.993,35.289-39.573,56.854-55.327c13.007-9.502,27.134-16.761,42.615-21.35
			c3.156-0.935,6.248-1.996,9.564-1.197c0.519,0.125,0.882,0.895,1.317,1.368c-0.237,0.642-0.297,1.623-0.746,1.856
			c-1.244,0.647-2.631,1.055-3.996,1.432c-16.28,4.498-31.131,11.929-44.767,21.831c-22.813,16.566-42.504,36.298-59.529,58.743
			c-16.737,22.065-30.766,45.792-43.396,70.384c-40.296,78.457-82.755,155.792-121.842,234.877
			c-22.146,44.807-49.688,86.15-81.01,125.017c-4.321,5.362-9.087,10.371-13.776,15.424c-0.548,0.591-2.227,0.897-2.847,0.5
			C862.322,976.308,862.383,974.704,863.226,973.367z M1069.799,1297.803c2.665,24.208,5.994,48.274,11.378,72.036
			c2.168,9.568,4.776,19,8.419,28.127c0.941,2.357,1.831,4.743,2.58,7.167c0.526,1.701,1.126,3.967-0.861,4.773
			c-1.94,0.788-3.012-0.885-3.764-2.8c-3.583-9.122-7.066-18.267-9.683-27.728c-4.073-14.726-6.82-29.738-9.017-44.813
			c-4.245-29.129-7.712-58.354-7.41-78.282c0.268-46.063,3.613-82.147,13.242-117.438c6.904-25.3,16.35-49.602,29.293-72.484
			c9.48-16.76,19.296-33.307,30.563-48.948c1.238-1.719,2.292-3.863,4.927-3.734c1.493,0.073,1.36,3.981-0.494,6.693
			c-8.61,12.597-16.682,25.526-24.49,38.634c-18.179,30.519-30.918,63.146-38.508,97.832c-3.656,16.711-6.066,33.614-7.342,50.632
			C1066.373,1237.593,1066.485,1267.7,1069.799,1297.803z M835.44,1065.16c0.706-0.16,1.429-0.248,2.148-0.343
			c14.763-1.95,29.522-3.927,44.293-5.815c2.878-0.368,5.801-0.385,6.656-0.438c4.955,0,7.877-0.195,10.765,0.036
			c9.69,0.775,14.575,5.16,15.883,14.748c0.932,6.833,1.496,13.737,1.82,20.629c3.019,64.221,22.066,124.07,49.5,181.615
			c15.825,33.195,33.676,65.208,57.115,93.75c16.894,20.573,35.656,39.266,57.338,54.875c1.167,0.84,2.307,1.754,3.288,2.795
			c0.393,0.417,0.651,1.613,0.393,1.865c-0.702,0.686-1.844,1.616-2.572,1.442c-1.719-0.411-3.469-1.17-4.901-2.209
			c-4.699-3.409-9.424-6.815-13.85-10.563c-28.529-24.158-52.575-52.193-71.882-84.207c-30.359-50.339-54.049-103.56-68.431-160.699
			c-5.059-20.102-8.469-40.518-10.058-61.211c-0.807-10.506-1.501-21.021-2.449-31.514c-1.253-13.885-4.735-17.194-18.744-16.089
			c-13.749,1.084-27.415,3.202-41.133,4.724c-5.045,0.56-10.134,0.755-15.208,1.019c-1.021,0.053-2.192-0.304-2.408-1.545
			C832.688,1066.207,833.925,1065.504,835.44,1065.16z M969.966,2263.455c-22.604,17.074-46.413,32.472-72.438,44.128
			c-16.538,7.408-33.704,10.57-51.833,10.573c-21.944,0.003-42.245-5.185-61.817-14.934c-28.285-14.09-53.101-32.605-75.168-55.154
			c-16.32-16.676-30.787-34.884-45.443-52.941c-21.991-27.093-44.08-54.126-64.547-82.406
			c-11.715-16.187-23.023-32.676-34.192-49.246c-9.548-14.165-18.047-28.991-25.658-44.289
			c-16.019-32.194-31.282-64.737-43.128-98.744c-8.389-24.082-13.983-48.848-16.924-74.196c-0.209-1.8-0.31-3.644-0.795-5.375
			c-0.776-2.767-4.074-5.099-6.522-4.895c-2.526,0.211-5.328,2.892-5.837,5.672c-0.869,4.747,0.011,9.454,0.706,14.097
			c2.313,15.454,5.57,30.715,9.537,45.842c7.774,29.647,20.476,57.371,32.548,85.38c23.185,53.794,55.04,102.262,90.522,148.51
			c16.151,21.051,32.824,41.701,49.221,62.564c1.527,1.943,3.712,3.515,4.001,6.232c-0.184,0.366-0.284,0.756-0.529,0.997
			c-0.217,0.213-0.597,0.374-0.902,0.369c-142.104-2.596-284.207-5.209-426.749-7.829c-1.013-3.693-0.176-6.841,0.385-9.876
			c7.857-42.501,16.511-84.842,26.262-126.948c25.986-112.207,57.69-222.781,95.38-331.622
			c31.146-89.942,66.007-178.394,106.834-264.426c28.369-59.781,59.282-118.164,96.043-173.294
			c13.925-20.882,28.783-41.075,45.181-60.106c8.076-9.374,16.613-18.299,25.536-26.873c26.058-25.036,57.148-40.719,91.894-49.644
			c4.569-1.174,9.233-2.002,13.761-3.312c13.647-3.948,27.59-6.155,41.637-8.166c18.326-2.624,36.492-6.344,54.77-9.324
			c15.05-2.454,30.157-4.556,45.253-6.718c2.95-0.422,4.206,0.591,4.387,3.38c0.33,5.078,0.503,10.167,0.644,15.254
			c0.696,25.121,3.072,50.062,8.494,74.629c7.655,34.686,20.402,67.3,39.563,97.37c21.226,33.311,46.47,63.255,75.091,90.356
			c27.202,25.757,55.055,50.77,86.117,71.935c11.431,7.789,23.268,14.829,35.837,20.618c8.269,3.809,16.806,6.873,25.708,8.789
			c4.947,1.065,9.999,1.402,14.411,4.476c2.135,1.488,4.944,1.193,7.101-0.697c2.148-1.883,2.463-4.4,1.786-7.001
			c-0.454-1.742-1.236-3.4-1.881-5.092c-10.451-27.385-15.92-55.806-17.646-85.001c-1.975-33.427-2.459-66.87-0.032-100.283
			c1.448-19.931,3.417-39.831,5.518-59.707c1.527-14.448,3.639-28.836,5.535-43.244c0.182-1.383,0.68-2.724,0.955-3.786
			c2.607-1.182,4.778-0.427,6.832,0.025c11.513,2.532,22.366,0.536,32.847-4.422c0.984-0.465,1.967-0.951,2.992-1.312
			c2.614-0.92,5.325,1.256,4.792,3.837c-0.219,1.065-0.54,2.112-0.861,3.152c-13.344,43.217-11.169,85.99,3.665,128.401
			c0.359,1.027,0.644,2.14,1.255,3.009c2.103,2.989,1.051,5.424-1.101,7.766c-23.43,25.518-30.46,57.16-33.355,90.222
			c-1.09,12.445,1.643,24.599,4.727,36.598c1.265,4.92,2.82,9.767,4.289,14.633c4.925,16.314,6.151,32.76,2.096,49.473
			c-1.026,4.228-1.547,8.58-2.276,12.88c-1.435,8.462,0.4,16.618,2.263,24.79c1.37,6.01,2.5,12.075,3.799,18.102
			c0.701,3.255-0.489,5.612-3.097,7.499c-5.001,3.62-9.867,7.43-14.942,10.941c-23.907,16.541-48.524,31.989-73.251,47.259
			c-12.67,7.824-25.351,15.636-38.167,23.219c-35.052,20.739-68.376,44.097-102.042,66.945
			c-29.475,20.004-54.303,44.838-76.066,72.877c-6.477,8.345-12.03,17.298-17.069,26.568c-1.911,3.515-3.588,7.147-3.353,11.344
			c0.179,3.192,2.269,5.826,5.063,6.179c2.375,0.3,5.002-1.151,6.044-3.71c9.111-22.371,25.516-39.528,41.175-57.126
			c17.247-19.382,37.41-35.421,58.831-50.033c38.724-26.413,77.891-52.109,118.15-76.138c26.826-16.012,53.347-32.528,79.161-50.138
			c9.9-6.753,19.684-13.706,29.182-21.009c6.338-4.873,11.167-11.383,15.975-17.719c9.445-12.448,18.643-25.086,27.785-37.759
			c8.724-12.096,17.702-23.979,27.622-35.129c5.087-5.717,10.545-11.04,16.64-15.686c7.91-6.03,16.174-7.471,25.385-2.71
			c10.669,5.514,21.367,10.854,30.091,19.402c3.104,3.042,6.67,5.616,10.065,8.354c5.392,4.349,10.282,9.162,14.764,14.474
			c4.21,4.99,8.673,9.831,13.488,14.231c7.948,7.264,13.585,16,18.024,25.673c3.688,8.037,3.566,16.234,1.038,24.45
			c-2.276,7.396-6.13,13.99-11.616,19.482c-5.393,5.399-10.912,10.68-16.522,15.854c-8.019,7.393-16.197,14.614-24.258,21.961
			c-5.122,4.669-9.778,9.771-13.458,15.677c-2.71,4.349-4.77,8.947-5.267,14.159c-1.357,14.224,4.128,24.962,17.36,30.763
			c14.376,6.302,25.744,16.142,36.139,27.474c3.262,3.556,5.774,7.398,6.195,12.406c0.66,7.865-1.648,14.218-8.418,18.81
			c-12.483,8.469-26.289,10.068-40.699,7.729c-5.41-0.878-10.761-1.607-16.229-1.592c-12.193,0.033-20.693,5.862-25.872,16.671
			c-3.334,6.958-4.99,14.43-5.404,22.093c-0.57,10.539-0.338,21.075,0.954,31.577c1.287,10.458,2.403,20.938,3.651,31.402
			c1.229,10.299-0.021,20.293-3.464,30.05c-3.502,9.926-6.849,19.908-10.486,29.784c-7.284,19.782-19.687,36.347-33.499,51.891
			c-13.763,15.489-27.866,30.678-41.92,45.906c-6.409,6.945-12.88,13.85-19.625,20.466
			c-36.339,35.642-72.147,71.864-110.764,105.086C1042.789,2206.677,1006.803,2235.629,969.966,2263.455z M1141.385,2224.323
			c-10.9,0.296-21.803,0.464-32.705,0.634c-19.988,0.313-39.977,0.618-59.966,0.84c-2.014,0.022-4.259,0.809-6.016-0.884
			c-0.089-0.387-0.272-0.727-0.205-1.007c0.08-0.331,0.318-0.683,0.589-0.901c33.678-27.156,66.438-55.359,99.059-87.579
			c0.526,8.325,1.001,14.357,1.272,20.398c0.946,21.056,1.849,42.115,2.703,63.175
			C1146.294,2223.408,1145.608,2224.208,1141.385,2224.323z M1544.296,2219.249c-3.558,0-7.128-0.039-10.697,0.006
			c-84.352,1.061-168.704,2.116-253.055,3.207c-35.631,0.46-71.261,1.001-106.891,1.501c-2.545,0.036-5.091,0.071-7.636,0.04
			c-6.18-0.075-6.18-0.09-6.473-5.771c-0.431-8.351-0.918-16.699-1.284-25.052c-0.923-21.066-1.653-42.143-2.778-63.198
			c-0.275-5.153,1.002-8.946,4.925-12.372c5.743-5.017,11.07-10.512,16.577-15.8c19.678-18.898,38.707-38.413,56.635-58.999
			c6.922-7.948,14.061-15.726,21.433-23.258c9.968-10.184,18.5-21.477,26.509-33.186c5.964-8.72,10.844-18.05,14.407-28.029
			c2.685-7.521,4.953-15.218,8.105-22.537c8.061-18.721,8.681-37.918,5.417-57.734c-2.242-13.612-3.646-27.372-3.503-41.243
			c0.065-6.257,1.039-12.35,2.733-18.276c2.979-10.422,8.382-14.092,19.318-13.49c3.243,0.179,6.448,0.988,9.678,1.455
			c18.198,2.633,35.439,0.66,51.132-9.948c12.993-8.784,16.662-23.726,13.286-36.389c-1.448-5.43-4.333-10.01-8.023-14.053
			c-11.581-12.689-23.845-24.615-40.359-30.758c-11.087-4.124-13.169-16.731-7.863-25.373c3.262-5.313,7.385-9.898,11.978-14.067
			c8.345-7.576,16.823-15.009,25.075-22.684c6.119-5.69,12.21-11.447,17.881-17.574c7.817-8.447,12.562-18.542,14.794-29.878
			c1.827-9.274,0.517-18.093-3.24-26.608c-3.089-7-6.918-13.601-11.587-19.679c-1.323-1.724-1.291-3.249,0.106-4.804
			c12.788-14.232,21.175-31.184,29.707-48.046c5.243-10.362,11.124-20.377,15.742-31.082c10.337-23.958,13.276-48.869,10.832-74.651
			c-2.167-22.866-7.783-45.077-12.572-67.443c-2.286-10.677-4.271-21.405-5.012-32.281c-1.567-23.018,3.6-44.828,13.411-65.482
			c7.637-16.078,14.951-32.268,21.606-48.778c5.18-12.849,9.492-25.895,11.584-39.621c0.829-5.438,1.276-10.843-0.972-16.096
			c-1.404-3.281-1.534-4.384,2.854-6.857c8.329-4.695,15.346-10.972,21.811-17.923c17.493-18.807,31.36-39.814,40.706-63.923
			c11.597-29.917,20.003-60.654,25.865-92.137c1.662-8.926,3.115-17.891,4.664-26.839c-0.64-7.426,1.707-14.544,2.247-21.848
			c-0.391-3.973-0.079-7.854,1.502-11.572c0,0,0,0,0-0.001c0.409-9.073,1.004-18.144,1.169-27.221
			c0.127-6.993,3.741-10.346,11.073-11.742c-0.911,8.804-4.2,16.512-5.504,24.615c-1.268,7.883-2.917,15.705-4.398,23.554
			c0.448,4.238,0.249,8.387-1.68,12.301c-0.184,15.966-0.397,31.932-0.538,47.898c-0.061,6.883,0.029,13.768,0.05,20.652h0
			c2.799,42.987,11.782,84.813,23.334,126.197c9.664,34.622,19.351,69.218,31.114,103.213
			c12.855,37.152,28.099,73.192,47.954,107.234c-0.697,3.368-3.875,4.093-6.214,5.487c-33.426,19.921-65.546,41.792-97.064,64.578
			c-19.497,14.095-37.785,29.524-54.061,47.323c-21.136,23.114-36.223,49.885-48.122,78.602
			c-12.803,30.902-23.846,62.399-30.965,95.153c-4.018,18.486-6.893,37.144-7.843,56.072c-0.747,14.885-1.64,29.762-2.468,44.643
			c-1.705,30.607,0.959,61.032,3.849,91.443c1.65,17.367,3.579,34.707,5.147,52.081c6.746,74.764,20.306,148.183,42.619,219.943
			c8.948,28.777,17.585,57.662,28.096,85.904c6.071,16.312,13.562,32.092,20.246,48.182
			C1542.291,2210.139,1545.12,2213.777,1544.296,2219.249z M1836.536,2271.403c-2.643,13.735-7.24,26.628-13.959,38.743
			c-11.69,21.079-27.784,38.232-48.493,50.562c-13.773,8.201-28.902,13.693-44.554,17.109c-25.333,5.53-50.583,4.558-75.3-3.525
			c-20.974-6.858-36.514-20.661-47.462-39.568c-7.063-12.198-9.548-25.831-10.287-39.718c-0.443-8.336-0.081-16.716-0.081-27.131
			c-1.832-22.879,2.807-47.195,7.116-71.532c6.142-34.689,11.763-69.455,17.08-104.286c5.532-36.24,10.876-72.555,19.135-108.326
			c1.221-5.286,3.03-10.447,4.753-15.604c0.863-2.583,2.74-3.98,5.673-4.255c12.661-1.184,25.281-3.287,37.961-3.698
			c42.872-1.39,85.761-2.185,128.567,1.837c11.27,1.059,13.136,2.406,14.495,13.602c1.582,13.035,0.661,26.151-0.365,39.196
			c-2.111,26.871-2.198,53.719,0.028,80.586c0.54,6.513,0.798,13.073,0.742,19.608c-0.214,24.783,2.724,49.3,5.455,73.873
			C1840.092,2216.354,1841.834,2243.872,1836.536,2271.403z M1704.302,1780.449c-0.456-2.858-1.246-5.673-2.04-8.466
			c-3.209-11.287-4.509-22.728-3.7-34.483c0.402-5.847,1.124-11.557,2.96-17.106c2.507-7.576,4.773-15.252,7.697-22.667
			c9.071-23.003,15.548-46.81,22.406-70.509c4.038-13.954,8.837-27.661,14.918-40.87c2.27-4.932,4.928-9.705,7.699-14.379
			c1.466-2.472,3.353-4.78,5.399-6.808c6.347-6.288,11.491-5.207,14.75,3.248c1.972,5.117,2.488,10.576,2.308,16.086
			c-0.475,14.556-2.104,28.998-4.705,43.305c-4.356,23.961-7.161,48.128-10.115,72.281c-1.676,13.696-3.107,27.427-5.835,40.979
			c-0.567,2.819-0.745,5.756-0.736,8.638c0.008,2.379,1.571,4.1,3.774,4.812c2.165,0.701,4.307,0.276,6.062-1.368
			c2.23-2.089,3.215-4.748,3.689-7.701c1.324-8.242,2.938-16.444,4.033-24.716c3.004-22.686,5.813-45.398,8.675-68.103
			c1.872-14.852,5.681-29.172,11.368-43.027c2.915-7.101,6.423-13.864,11.086-19.922c2.595-3.372,5.691-7.842,10.335-6.688
			c4.441,1.104,5.738,6.11,6.71,10.442c1.202,5.357,1.635,10.719,0.802,16.224c-2.068,13.643-3.918,27.319-5.882,40.977
			c-3.359,23.365-6.576,46.752-10.169,70.081c-2.21,14.348-5.024,28.603-7.527,42.906c-0.371,2.119-0.941,4.33-0.675,6.403
			c0.344,2.678,2.185,4.517,4.988,5.098c2.444,0.507,5.553-0.569,6.512-2.833c1.26-2.976,2.249-6.123,2.904-9.289
			c5.595-27.043,9.528-54.359,13.294-81.702c1.93-14.015,3.551-28.079,8.517-41.501c2.396-6.475,4.774-12.927,7.979-19.053
			c2.065-3.948,4.795-7.312,8.737-9.458c4.511-2.457,8.583-1.109,10.82,3.517c1.915,3.961,2.93,8.157,3.166,12.589
			c0.506,9.488-0.302,18.841-1.925,28.202c-6.016,34.699-11.81,69.437-17.798,104.141c-0.986,5.715-2.598,11.319-3.783,17.003
			c-0.591,2.834-1.111,5.724-1.223,8.605c-0.108,2.804,1.683,4.747,4.158,5.839c2.436,1.075,6.094-0.298,7.493-2.953
			c0.998-1.895,1.661-4.018,2.164-6.113c4.408-18.366,8.044-36.888,10.881-55.563c1.581-10.408,2.931-20.869,6.555-30.829
			c1.237-3.397,2.72-6.721,4.329-9.96c0.79-1.59,1.952-3.093,3.247-4.315c4.335-4.092,8.642-3.483,11.632,1.659
			c3.363,5.783,4.529,12.17,4.953,18.778c0.868,13.524-1.003,26.835-2.87,40.153c-3.328,23.741-7.382,47.363-12.515,70.776
			c-2.718,12.4-5.656,24.794-9.356,36.928c-4.466,14.643-11.719,28.206-19.63,41.191c-11.14,18.285-23.385,35.895-35.119,53.819
			c-1.545,2.36-3.404,3.365-6.346,3.083c-22.46-2.151-45.024-2.154-67.539-2.343c-21.052-0.177-42.119,1.142-63.176,1.907
			c-5.792,0.21-6.104,0.088-5.398-6.017c2.056-17.781,2.088-35.528-0.729-53.24c-2.058-12.94-5.241-25.639-9.42-38.014
			c-6.457-19.12-9.296-38.8-10.33-58.815c-1.143-22.144-2.297-44.29,0.025-66.444c1.403-13.379,3.285-26.665,6.564-39.727
			c1.511-6.02,3.79-11.747,6.77-17.177c1.914-3.487,4.01-6.884,7.719-8.746c3.844,1.951,4.791,5.369,5.542,9.035
			c1.541,7.523,1.8,15.143,2.085,22.772c0.53,14.164,1.173,28.324,1.621,42.49c0.496,15.706,3.403,31.022,7.166,46.208
			c0.61,2.462,1.374,4.91,2.344,7.25c0.985,2.374,3.845,3.887,6.17,3.571c2.832-0.385,4.664-2.087,5.3-4.766
			C1704.473,1784.071,1704.577,1782.177,1704.302,1780.449z M2514.316,2203.936c-11.761,2.281-23.485,4.918-35.346,6.486
			c-24.519,3.24-49.171,5.017-73.934,4.85c-19.27-0.129-38.56,0.296-57.806-0.443c-25.421-0.976-50.842-2.425-76.197-4.482
			c-17.783-1.442-35.095-5.91-51.87-12.005c-18.306-6.651-37.092-10.052-56.552-10.059c-12.406-0.005-24.659-1.608-36.706-4.519
			c-9.43-2.279-18.712-2.039-27.986,0.635c-4.185,1.207-8.339,2.545-12.57,3.56c-15.702,3.767-30.622,2.249-42.996-8.867
			c-9.556-8.583-20.522-11.709-32.901-12.108c-20.003-0.646-39.866-2.312-59.237-8.021c-8.158-2.404-15.849-5.159-21.733-11.648
			c-1.189-1.311-2.794-2.32-4.358-3.198c-2.124-1.192-4.209-0.738-6.023,0.837c-1.629,1.415-1.469,3.305-0.882,5.017
			c1.438,4.199,3.867,7.775,7.294,10.663c4.775,4.025,10.104,6.957,16.012,9.048c16.923,5.99,34.405,8.927,52.252,9.989
			c5.443,0.323,10.896,0.508,16.347,0.684c9.328,0.301,17.604,2.656,24.865,9.244c8.807,7.991,19.629,12.189,31.547,13.503
			c8.105,0.893,15.942-0.378,23.725-2.326c4.927-1.234,9.816-2.627,14.707-4.003c5.731-1.612,11.488-1.679,17.246-0.28
			c15.621,3.794,31.464,5.403,47.532,5.468c13.536,0.054,26.684,2.672,39.558,6.888c9.993,3.273,20.115,6.151,30.153,9.285
			c0.482,0.151,0.861,1.052,1.032,1.674c0.237,0.858-0.32,1.063-1.312,1.078c-14.178,0.217-28.357,0.436-42.534,0.75
			c-59.615,1.321-119.228,2.723-178.844,3.999c-51.983,1.113-103.968,2.097-155.952,3.132c-1.452,0.029-2.907,0.03-4.359-0.01
			c-2.219-0.06-3.085-1.377-3.219-3.451c-0.422-6.528-0.794-13.062-1.354-19.579c-0.933-10.86-1.663-21.753-3.077-32.553
			c-2.506-19.14-3.506-38.342-3.921-57.624c-0.336-15.617-1.737-31.212-2.085-46.829c-0.388-17.434-0.371-34.862,1.327-52.292
			c1.09-11.188,0.899-22.516,0.95-33.782c0.02-4.323-0.726-8.674-1.396-12.97c-1.367-8.762-5.151-15.897-13.705-18.946
			c-1.244-2.986,0.657-4.615,1.757-6.282c6.599-10.006,13.331-19.924,20.068-29.837c1.01-1.486,2.207-3.026,4.413-2.137
			c8.891,3.582,18.475,3.708,27.737,5.164c16.005,2.517,24.076,13.952,26.554,27.733c1.846,10.268,1.319,20.262-1.224,30.23
			c-7.448,29.194-14.357,58.542-24.754,86.9c-1.122,3.06-1.667,6.333-2.796,9.39c-6.204,16.797-5.189,33.531,0.257,50.247
			c0.559,1.714,1.173,3.441,2.017,5.025c1.298,2.436,3.808,3.472,6.433,2.927c2.506-0.521,4.442-2.52,4.591-5.356
			c0.131-2.513-0.051-5.078-0.424-7.571c-0.32-2.138-1.096-4.21-1.686-6.307c-3.042-10.819-2.645-21.522,0.781-32.214
			c5.206-16.247,10.541-32.46,15.306-48.838c5.678-19.517,10.591-39.246,14.93-59.115c3.487-15.967,0.109-31.182-5.664-45.836
			c-3.417-8.673-10.379-14.86-19.063-18.611c-6.007-2.594-12.268-4.452-18.797-5.354c-5.386-0.744-10.742-1.699-15.942-2.533
			c-1.307-2.649,0.418-4.289,1.318-6.135c0.955-1.958,1.776-3.994,2.874-5.868c14.589-24.88,20.568-52.577,26.322-80.344
			c5.088-24.556,8.87-49.333,12.31-74.163c1.652-11.924,2.035-23.927,0.728-35.903c-0.469-4.298-1.517-8.608-2.899-12.711
			c-1.63-4.84-4.248-9.266-8.127-12.742c-5.84-5.234-12.368-7.117-18.751-2.417c-0.852,0.627-1.854,1.052-2.786,1.57
			c-1.653-2.181-1.413-4.436-0.262-6.726c1.432-10.072,3.159-20.111,2.85-30.352c-0.198-6.553-0.45-13.079-2.747-19.337
			c-1.649-4.494-3.928-8.598-7.356-11.966c-6.253-6.144-13.464-6.611-20.686-1.541c-3.89,2.731-6.577,6.616-9.664,10.087
			c-2.824-0.764-1.844-2.934-1.782-4.404c0.23-5.52-0.664-10.882-1.942-16.191c-1.389-5.769-4.167-10.856-8.324-15.092
			c-5.973-6.086-13.5-6.993-20.806-2.626c-3.456,2.065-6.505,4.631-9.064,7.755c-1.315,1.606-2.611,3.229-5.041,6.24
			c-0.368-4.519-0.472-7.244-0.832-9.936c-0.923-6.907-2.635-13.55-6.939-19.256c-7.596-10.071-18.338-11.686-28.636-4.241
			c-3.87,2.798-6.991,6.34-9.728,10.226c-4.41,6.262-7.857,13.041-10.964,20.031c-9.176,20.642-15.336,42.295-21.491,63.942
			c-3.971,13.966-7.616,28.024-11.426,42.037c-0.762,2.802-1.559,5.598-2.436,8.365c-0.32,1.009-0.922,2.085-2.259,1.562
			c-0.434-0.17-0.826-1.01-0.855-1.564c-0.33-6.172-0.417-12.361-0.917-18.518c-0.381-4.695-1.121-9.375-1.953-14.016
			c-0.919-5.121-3.285-9.61-6.88-13.381c-6.439-6.756-14.126-7.268-21.339-1.424c-4.01,3.249-6.95,7.368-9.492,11.832
			c-5.095,8.948-8.079,18.646-10.13,28.636c-6.179,30.107-7.611,60.536-5.751,91.152c1.014,16.683,1.701,33.42,5.38,49.805
			c1.589,7.076,3.579,14.064,5.526,21.054c0.584,2.096,1.469,4.092,1.03,6.771c-3.614,0.981-7.421,2.005-11.222,3.048
			c-23.063,6.33-44.115,16.585-62.465,32.087c-1.94,1.638-3.939,3.244-5.657,5.101c-2.687,2.904-2.719,6.303-0.363,8.758
			c2.125,2.213,4.711,2.386,7.857,0.239c2.396-1.635,4.604-3.545,6.92-5.3c19.101-14.475,40.577-23.861,63.706-29.688
			c1.048-0.264,2.156-0.302,3.239-0.412c1.713-0.173,2.825,0.792,3.229,2.258c0.865,3.143,1.564,6.336,2.229,9.53
			c3.963,19.035,3.849,38.274,2.779,57.553c-0.08,1.441-0.546,2.857-0.714,4.299c-0.359,3.083-2.31,4.229-5.137,4.602
			c-4.318,0.568-8.608,1.336-12.925,1.911c-4.392,0.585-6.992,2.906-8.737,7.071c-3.955,9.438-6.734,19.21-8.614,29.196
			c-3.898,20.699-7.624,41.435-11.052,62.217c-8.869,53.758-16.563,107.708-26.42,161.305c-1.036,5.634-1.278,5.977-6.922,6.215
			c-4.721,0.199-9.476-0.094-14.171,0.328c-5.268,0.473-7.875-1.88-9.713-6.61c-13.013-33.485-27.172-66.524-37.858-100.898
			c-12.611-40.567-25.223-81.124-34.543-122.61c-6.214-27.66-10.92-55.591-14.641-83.693c-5.726-43.246-9.64-86.674-13.479-130.119
			c-2.858-32.349-2.402-64.623-0.176-96.951c1.074-15.594,2.066-31.168,4.589-46.631c2.754-16.879,6.442-33.52,11.39-49.876
			c7.996-26.436,17.453-52.319,28.802-77.53c17.425-38.707,43.962-70.001,77.43-95.583c30.906-23.623,63.018-45.544,96.136-65.959
			c14.533-8.959,29.06-17.904,43.292-27.352c10.216-6.781,21.08-12.587,31.208-18.564c3.274,1.381,2.187,3.424,2.031,4.955
			c-2.377,23.234,6.237,42.706,20.634,60.131c2.996,3.625,6.384,7.017,10,10.025c15.088,12.554,30.396,24.811,47.597,34.488
			c11.851,6.667,24.265,11.372,37.875,12.817c9.028,0.958,17.99,2.592,27.029,3.373c14.538,1.256,29.068,0.626,43.507-1.528
			c15.808-2.358,31.637-4.609,47.387-7.313c10.752-1.846,21.169-5.093,31.17-9.537c26.263-11.672,51.759-24.677,74.911-41.951
			c14.633-10.918,28.191-22.953,40.085-36.798c15.631-18.194,31.354-36.308,45.486-55.743c12.621-17.357,25.064-34.78,33.89-54.488
			c1.871-4.177,2.679-4.386,7.767-2.61c25.372,8.859,50.197,19.086,74.49,30.554c26.908,12.702,53.876,25.306,80.44,38.703
			c53.177,26.818,102.015,59.959,145.391,101.009c40.515,38.342,68.693,84.297,85.348,137.312
			c10.477,33.347,17.233,67.525,20.57,102.369c1.873,19.554,3.118,39.139,3.64,58.763c0.745,28.055-1.53,55.963-5.461,83.699
			c-5.149,36.325-10.531,72.624-16.45,108.83c-3.748,22.928-8.719,45.656-13.028,68.495c-4.309,22.839-8.322,45.735-12.738,68.553
			c-8.346,43.128-15.607,86.485-27.704,128.819c-4.906,17.168-10.99,33.741-19.35,49.596
			C2528.804,2197.157,2523.111,2202.23,2514.316,2203.936z"/><path fill="#050505" d="M1537.103,967.609c-2.26-1.79-4.93-3.073-7.135-4.919c-3.53-2.954-7.409-2.783-11.313-1.524
			c-7.044,2.271-11.777,9.037-12,16.574c-0.157,5.307,1.614,10.021,4.489,14.328c4.673,7.001,12.224,9.545,19.992,6.914
			c7.851-2.659,12.716-9.205,12.771-20.023C1543.903,975.998,1541.647,971.206,1537.103,967.609z M1520.925,982.988
			c-2.513,0.031-5.032-2.264-4.938-4.683c0.119-3.056,1.247-5.591,4.229-6.953c3.423-1.563,6.744,0.523,6.76,4.25
			C1526.997,980.153,1524.712,982.941,1520.925,982.988z M1532.894,988.604c-0.4,1.677-1.514,2.443-3.003,2.151
			c-0.927-0.182-1.682-1.103-1.509-2.399c0.248-1.85,1.568-2.025,2.919-2.181C1532.184,986.828,1533.235,987.171,1532.894,988.604z"/><path fill="#060505" d="M1404.582,973.435c-3.726-7.687-10.255-10.831-17.003-11.046
			c-8.876-0.102-14.442,2.584-17.072,7.859c-3.096,6.21-1.434,11.967,2.195,17.383c2.701,4.031,6.334,6.861,10.927,8.547
			c6.972,2.56,13.31,1.358,17.971-3.594C1406.536,987.34,1407.749,979.97,1404.582,973.435z M1389.538,974.261
			c-0.375,3.936-2.652,6.281-5.9,6.079c-2.736-0.17-5.355-3.125-5.058-5.707c0.406-3.529,4.006-6.474,7.456-6.101
			C1388.25,968.772,1389.817,971.335,1389.538,974.261z M1392.582,988.124c-0.979-0.156-1.564-1.107-1.426-2.234
			c0.137-1.117,0.79-1.685,1.975-1.676c1.085-0.028,1.906,0.566,1.949,1.632C1395.145,987.433,1394.125,988.37,1392.582,988.124z"/><path d="M1998.356,1003.361c17.217-9.679,33.095-7.766,47.916,5.146c2.542,2.215,5.703,6.152,9.147,2.387
			c2.944-3.218-1.056-5.744-2.996-8.121c-1.819-2.227-4.119-4.077-5.178-6.883c-0.07-0.456-0.072-0.87-0.011-1.248
			c-4.091,2.091-6.297,0.179-7.82-3.186c-0.394,0.239-0.838,0.429-1.348,0.552c-3.786-0.734-8.656,1.02-10.855-3.401
			c-0.181,0.071-0.361,0.142-0.535,0.218c-11.208,0.669-22.475,1.307-31.925,8.442c-2.398,1.81-6.602,3.999-4.076,7.544
			C1992.665,1007.607,1995.947,1004.715,1998.356,1003.361z"/><path fill="#040303" d="M1802.579,1051.692c-5.635-4.628-11.661-5.198-18.185-1.868
			c-9.248,4.72-12.252,12.775-12.206,23.313c-0.075,7.637,2.623,14.896,9.433,20.19c9.176,7.134,21.647,4.964,27.36-4.628
			C1815.255,1078.165,1812.016,1059.444,1802.579,1051.692z M1795.784,1080.331c-2.051,3.348-6.504,3.657-9.197,0.837
			c-2.959-3.099-3.425-6.97-3.632-11.962c0.262-1.496,0.409-4.052,1.201-6.391c0.858-2.533,3.046-3.892,5.725-4.228
			c2.843-0.356,4.917,1.01,6.197,3.373C1799.405,1068.102,1799.481,1074.296,1795.784,1080.331z M1807.464,1078.542
			c-0.274,1.738-1.584,2.271-3.019,2.159c-1.583-0.123-2.47-1.292-2.462-2.867c0.009-1.743,2.166-3.271,3.615-2.695
			C1806.875,1075.647,1807.693,1077.14,1807.464,1078.542z"/><path fill="#060505" d="M2033.277,1053.503c-6.458-9.965-17.427-10.943-25.531-2.246
			c-10.479,11.244-8.907,26.751,3.749,36.994c6.813,5.514,15.936,4.362,20.743-2.942c3.211-4.879,5.16-10.324,5.014-15.75
			C2037.328,1063.468,2036.341,1058.23,2033.277,1053.503z M2020.309,1077.133c-1.607,1.965-4.949,2.002-6.636,0.112
			c-4.365-4.89-5.404-15.834-2.014-21.23c1.831-2.914,5.788-3.228,8.21-0.699c3.218,3.359,3.804,7.536,3.826,12.265
			C2023.814,1070.955,2022.662,1074.256,2020.309,1077.133z M2030.405,1076.272c-1.726,0.439-3.845-1.046-3.766-2.719
			c0.075-1.578,1.122-2.522,2.646-2.912c1.642-0.086,3.26,1.776,3.122,3.497C2032.304,1075.426,2031.467,1076.002,2030.405,1076.272
			z"/><path d="M1984.269,1218.771c-3.154-2.531-6.828-4.065-10.681-5.241c-8.456-2.58-17.138-2.965-24.823-2.838
			c-20.079,0.785-37.743,4.765-51.707,11.417c-5.954,2.837-11.543,6.2-15.656,11.49c-6.25,8.04-4.887,16.882,3.514,22.551
			c4.573,3.086,9.752,4.667,15.183,5.635c20.576,3.669,40.485,0.449,60.107-5.691c6.25-1.956,12.219-4.643,17.735-8.205
			c3.672-2.372,7.083-5.08,9.495-8.847C1992.177,1231.635,1991.066,1224.227,1984.269,1218.771z M1965.051,1244.506
			c-3.329,2.523-7.355,2.868-10.348,3.528c-2.825,0.12-4.535-0.52-5.89-1.793c-1.102-1.036-1.629-2.431-0.75-3.906
			c2.958-4.964,10.98-7.691,16.192-5.52c1.382,0.576,2.487,1.459,2.824,3.033
			C1967.518,1241.886,1966.593,1243.338,1965.051,1244.506z"/><path fill="#7a7272" d="M2793.955,2221.595c-0.698-0.024-1.395-0.048-2.091-0.073c-0.144-4.18-0.289-8.36-0.433-12.54
			c0.841-0.16,1.683-0.319,2.525-0.479C2793.955,2212.868,2793.955,2217.231,2793.955,2221.595z"/><path fill="#060505" d="M2050.644 993.021c-.188-.628-.413-1.241-.675-1.841 1.745-.109 3.311.143 4.084 2.003C2052.915 993.128 2051.779 993.075 2050.644 993.021zM2049.82 991.113c-1.875.023-3.672-.149-4.811-1.945C2046.981 988.905 2048.782 989.065 2049.82 991.113z"/><path fill="#010101" d="M2004.018 1920.817c19.216 1.084 38.426 2.754 57.185 7.139 21.278 4.974 42.852 7.624 64.503 9.895 25.633 2.689 51.285 5.201 76.938 7.693 9.031.878 18.094 1.442 27.138 2.193 20.668 1.714 40.913 5.911 61.09 10.485 8.15 1.847 16.377 3.147 24.691 4.018 4.32.453 8.676 1.115 12.851 2.273 7.382 2.047 12.789 6.741 15.949 13.76 1.197 2.657 1.838 5.504.39 8.411-1.046 2.099-2.517 3.488-4.936 3.686-2.42.198-4.245-.807-5.392-2.885-.512-.928-.719-2.027-1.044-3.055-1.329-4.213-4.27-6.631-8.511-7.495-2.841-.578-5.699-1.32-8.573-1.441-12.768-.537-25.165-3.222-37.531-6.143-22.313-5.271-44.971-7.98-67.815-9.661-18.822-1.385-37.597-3.422-56.379-5.312-17.335-1.744-34.649-3.702-51.977-5.52-14.097-1.48-28.028-3.994-41.813-7.181-18.465-4.269-37.24-5.991-56.049-7.536-4.695-.385-9.434-.563-14.022 1.076-1 .357-2.135.396-3.215.459-2.898.171-4.811-1.302-5.983-3.828-1.029-2.217-.29-4.898 1.77-6.85 2.765-2.62 6.195-3.832 9.849-4.12C1996.741 1920.596 2000.388 1920.817 2004.018 1920.817zM2321.852 1826.816c.217-33.164 2.528-66.104 9.493-98.606 2.591-12.09 5.94-23.953 10.443-35.483 1.06-2.714 2.038-5.453 4.062-7.635 1.86-2.005 4.793-2.738 6.972-1.695 2.549 1.22 3.896 3.41 3.697 6.127-.156 2.126-.582 4.469-1.659 6.25-4.629 7.656-5.917 16.363-7.972 24.776-9.909 40.566-12.134 81.856-11.238 123.427.33 15.286 1.826 30.474 3.382 45.662.222 2.169.841 4.324.039 6.453-.952 2.525-2.597 4.372-5.473 4.665-2.874.292-4.95-1.104-6.245-3.49-1.587-2.926-1.939-6.214-2.216-9.488-.737-8.693-1.727-17.372-2.171-26.079C2322.375 1850.083 2322.204 1838.445 2321.852 1826.816z"/><path fill="#090606" d="M1895.106,2176.641c-8.726-0.593-17.113-2.592-25.189-5.9c-1.33-0.544-2.644-1.192-3.84-1.982
			c-2.493-1.648-3.387-4.913-2.22-7.595c1.21-2.781,3.897-4.227,7.046-3.648c1.413,0.26,2.875,0.582,4.15,1.21
			c6.567,3.237,13.695,4.416,20.758,5.85c1.06,0.215,2.165,0.274,3.187,0.6c3.038,0.969,4.903,3.747,4.501,6.539
			c-0.389,2.695-2.975,4.748-6.23,4.922C1896.55,2176.674,1895.827,2176.641,1895.106,2176.641z"/><path fill="#030303" d="M1879.537 1107.773c.459-3.951.868-7.908 1.388-11.851 1.135-8.611 2.292-17.219 3.518-25.817.303-2.126.669-4.301 1.431-6.29.85-2.217 2.807-3.192 5.211-3.112 2.435.081 4.006 1.432 5.038 3.511 1.367 2.755.923 5.694.622 8.547-.874 8.282-1.886 16.55-2.867 24.821-.944 7.959-1.382 15.912 1.042 23.696.851 2.733 2.007 5.405 3.323 7.949.923 1.785 2.485 2.533 4.297.802.523-.5 1.051-1.009 1.638-1.426 2.214-1.573 4.452-2.167 7.03-.604 2.866 1.738 3.792 4.261 3.408 7.377-1.127 9.133-10.246 13.706-18.822 9.411-5.426-2.717-9.025-7.209-11.41-12.65C1880.994 1124.397 1879.466 1116.263 1879.537 1107.773zM1748.427 1025.564c-.062-3.672 1.361-7.494 3.734-10.68 10.933-14.681 25.006-23.974 43.902-24.283 12.471-.205 21.088 6.599 27.958 16.135 2.208 3.065 1.605 6.529-.956 8.83-2.589 2.325-5.871 2.324-8.786-.295-2.149-1.93-3.948-4.246-6.066-6.215-3.268-3.037-7.019-4.941-11.67-5.048-8.331-.191-15.667 2.686-22.396 7.173-6.351 4.235-12.677 8.667-14.115 17.05-.495 2.885-2.244 4.461-5.121 4.718C1751.049 1033.294 1748.374 1030.414 1748.427 1025.564z"/><path fill="#060505" d="M2039.068,990.646c2.779,1.308,5.557,2.617,8.331,3.922c4.012,3.655,8.572,6.759,11.688,11.337
			c2.221,3.264,1.942,6.382-0.708,8.802c-2.594,2.369-5.799,2.457-8.855-0.029c-1.964-1.598-3.568-3.637-5.528-5.24
			c-11.262-9.213-23.932-11.443-37.833-7.49c-4.701,1.337-8.132,4.635-11.964,7.358c-2.8,1.991-5.566,1.47-7.691-1.115
			c-1.5-1.825-1.92-3.795-0.797-6.032c1.348-2.685,3.502-4.612,5.792-6.409c7.417-5.819,16.05-8.261,25.288-8.804
			c3.254-0.191,6.534,0.063,9.812,0.114C2030.356,989.678,2035.02,989.093,2039.068,990.646z"/><path fill="#020202" d="M1461.173,1017.638c-0.67-3.68-1.349-7.233-1.961-10.797c-1.843-10.758-0.864-20.763,6.238-29.835
			c8.357-10.677,7.225-18.258-5.049-25.928c-1.521-0.951-3.052-1.968-4.327-3.212c-1.698-1.658-2.069-3.818-1.043-5.982
			c0.995-2.098,2.707-3.4,5.132-3.379c1.074,0.009,2.255,0.04,3.203,0.468c7.789,3.52,14.342,8.507,18.269,16.326
			c3.516,7.001,2.794,14.1-0.213,21.014c-1.289,2.965-2.87,5.944-4.929,8.406c-4.897,5.857-5.598,12.449-3.999,19.455
			c1.22,5.348,1.81,10.715,1.837,16.173c0.026,5.208-1.489,9.967-3.957,14.517c-6.559,12.095-24.38,11.274-31.939,2.895
			c-1.872-2.075-2.283-4.479-1.158-7.044c0.959-2.186,3.701-3.651,6.371-3.059c2.445,0.542,4.743,1.715,7.166,2.393
			c4.706,1.315,7.897-0.341,9.215-4.976C1460.714,1022.671,1460.814,1020.102,1461.173,1017.638z"/><path fill="#050404" d="M1375.083,918.471c14.776,0.508,28.64,6.229,41.451,14.902c2.726,1.846,4.924,4.274,6.471,7.212
			c1.037,1.97,1.38,4.085,0.993,6.304c-0.653,3.745-5.216,5.865-8.395,3.802c-1.199-0.778-2.239-1.82-3.279-2.817
			c-9.468-9.076-21.114-13.64-33.692-16.241c-3.932-0.813-7.902-0.783-11.896-0.321c-2.143,0.248-4.347,0.374-6.484,0.158
			c-2.957-0.298-5.44-3.119-5.512-5.811c-0.057-2.114,1.944-5.103,4.338-5.659c2.793-0.649,5.698-0.849,8.566-1.13
			C1369.802,918.659,1371.98,918.629,1375.083,918.471z"/><path fill="#090707" d="M1513.161,930.062c-1.888,0.302-4.366,0.726-6.854,1.086c-1.415,0.205-2.882,0.577-4.261,0.393
			c-2.728-0.365-4.554-2.052-5.35-4.715c-0.63-2.108,0.811-5.033,3.175-6.24c4.619-2.359,9.763-2.987,14.725-2.853
			c10.2,0.276,19.969,2.783,28.856,8.053c1.537,0.912,3.011,2.002,4.312,3.225c2.495,2.344,3.087,5.403,1.733,7.816
			c-1.63,2.905-5.021,4.116-8.341,2.692c-2.64-1.132-5.12-2.63-7.695-3.918C1527.265,932.503,1520.687,930.772,1513.161,930.062z"/><path fill="#d42488" d="M2130.631 1118.389c-1.24-1.44-1.836-3.046-1.916-4.897-2.701-.231-4.521-2.081-6.587-3.52-16.434-11.441-36.071-7.951-48.445 4.743-11.575 11.875-16.022 26.35-13.659 42.75.819 5.689 2.32 11.28 3.508 16.918 4.021 3.024 5.921 7.682 8.876 11.534 2.417 1.584 4.836 3.159 7.257 4.732 12.662 8.226 25.681 8.707 39.051 1.816 2.239-1.154 4.512-2.243 6.769-3.361.696-.828 1.338-1.709 2.096-2.476C2146.093 1167.885 2146.236 1136.51 2130.631 1118.389zM2111.823 1182.864c-1.271 1.394-3.007 1.961-4.845 2.146-11.855 1.198-21.429-3.047-28.326-12.649-9.96-13.868-8.815-35.693 2.261-48.772.445-.525 1.11-.98 1.761-1.178.635-.194 1.688-.3 2.016.056.654.708 1.495 1.946 1.264 2.63-.566 1.681-1.664 3.192-2.604 4.738-4.499 7.396-6.019 15.439-5.367 23.996 1.229 16.134 11.637 25.569 29.865 25.209-.15-.013 1.643.037 3.384.364.483.091 1.047.964 1.145 1.55C2112.476 1181.556 2112.235 1182.412 2111.823 1182.864zM2118.586 1173.073c-1.417-.205-2.669-.996-2.903-2.635-.004-1.698.837-2.725 2.446-2.941 1.51-.203 2.801.273 3.315 1.883C2121.937 1170.925 2120.201 1173.307 2118.586 1173.073zM1774.551 1156.549c-9.67-14.663-28.273-21.541-44.582-16.698-4.132 1.227-8.167 2.777-12.247 4.179-1.371 3.59-4.783 5.374-7.166 8.069-10.593 11.984-13.105 25.806-8.271 40.68 7.002 21.541 30.62 32.627 52.004 25.049 3.745-1.327 6.965-3.98 11.09-4.315.75-3.885 4.178-5.761 6.436-8.504C1783.321 1191.026 1784.454 1171.565 1774.551 1156.549zM1758.404 1204.267c-.84.679-1.698 1.379-2.654 1.863-5.303 2.686-10.03 3.686-16.849 3.674-13.99.583-25.375-8.119-28.539-23.29-2.419-11.596.694-22.295 6.564-32.31.327-.558 1.086-1.024 1.731-1.188.616-.156 1.488-.062 1.99.29.515.361 1.135 1.299.99 1.755-.761 2.383-1.654 4.737-2.681 7.02-2.907 6.46-3.702 13.228-3.274 20.227 1.122 18.354 17.61 25.034 29.863 21.5 3.803-1.097 7.59-2.253 11.421-3.244.528-.136 1.53.366 1.847.868C1759.393 1202.348 1759.379 1203.479 1758.404 1204.267zM1765.535 1195.469c-1.571-.123-2.742-.83-3.065-2.437-.33-1.648.444-2.765 2.028-3.254 1.6-.494 2.84.115 3.508 1.578C1768.701 1192.878 1767.223 1195.215 1765.535 1195.469z"/></svg>