<svg xmlns="http://www.w3.org/2000/svg" data-name="Layer 1" viewBox="0 0 32 32"><path fill="#8b8891" d="M20.52 9.50977a.5.5 0 0 1-.35352-.85352l1.33984-1.33984a.49995.49995 0 0 1 .707.707L20.87354 9.36328A.49838.49838 0 0 1 20.52 9.50977zM5.269 9.53516a.49838.49838 0 0 1-.35352-.14648L3.55029 8.02295a.49995.49995 0 1 1 .707-.707L5.62256 8.68164a.5.5 0 0 1-.35352.85352z"/><rect width="3" height="3.792" x="11.5" y="3.5" fill="#8b8891"/><rect width="3.207" height="2.138" x="21.017" y="5.845" fill="#3c3b41" rx=".5" ry=".5" transform="rotate(45 22.62 6.914)"/><path fill="#2c2b2d" d="M22.08453,6.8894a.5.5,0,0,1,0-.70709l.6582-.6582-.14642-.14648a.5.5,0,0,0-.70709,0l-.80469.80469a.5.5,0,0,0,0,.70709l1.56055,1.56049a.5.5,0,0,0,.70709,0l.14642-.14642Z"/><rect width="3.207" height="2.138" x="1.544" y="5.845" fill="#3c3b41" rx=".5" ry=".5" transform="rotate(135 3.148 6.914)"/><path fill="#2c2b2d" d="M2.61163,7.64526a.5.5,0,0,1,0-.70709L4.0257,5.524l-.14642-.14642a.50008.50008,0,0,0-.70715,0L1.61163,6.93817a.5.5,0,0,0,0,.70709l.80463.80463a.5.5,0,0,0,.70709,0l.14648-.14642Z"/><circle cx="13" cy="19" r="12.5" fill="#fdd402" transform="rotate(-76.827 13 19)"/><path fill="#fff" d="M23.5,19.06a10.4418,10.4418,0,0,1-2.67,6.98,7.77593,7.77593,0,0,1-.69.72,10.47606,10.47606,0,0,1-6.64,2.79c-.17.01-.33.01-.5.01s-.33,0-.5-.01a10.47825,10.47825,0,0,1-6.56-2.72H5.93a9.36787,9.36787,0,0,1-.7-.71,10.45237,10.45237,0,0,1-2.72-6.66c-.01-.13-.01-.27-.01-.4,0-.2.01-.4.01-.6A10.582,10.582,0,0,1,5.3,11.92a9.35908,9.35908,0,0,1,.72-.69A10.43912,10.43912,0,0,1,12.5,8.57c.17-.01.33-.01.5-.01s.33,0,.5.01a10.47852,10.47852,0,0,1,6.56,2.72,9.51468,9.51468,0,0,1,.71.71A10.49354,10.49354,0,0,1,23.5,19.06Z"/><path fill="#e0e0e2" d="M6.93,26.83a9.36787,9.36787,0,0,1-.7-.71,10.45237,10.45237,0,0,1-2.72-6.66c-.01-.13-.01-.27-.01-.4,0-.2.01-.4.01-.6A10.582,10.582,0,0,1,6.3,11.92a9.35908,9.35908,0,0,1,.72-.69A10.43912,10.43912,0,0,1,13.5,8.57c-.17-.01-.33-.01-.5-.01s-.33,0-.5.01a10.43912,10.43912,0,0,0-6.48,2.66,9.35908,9.35908,0,0,0-.72.69,10.582,10.582,0,0,0-2.79,6.54c0,.2-.01.4-.01.6,0,.13,0,.27.01.4a10.45237,10.45237,0,0,0,2.72,6.66,9.36787,9.36787,0,0,0,.7.71h.01a10.47825,10.47825,0,0,0,6.56,2.72c.17.01.33.01.5.01s.33,0,.5-.01a10.47825,10.47825,0,0,1-6.56-2.72Z"/><path fill="#3c3b41" d="M13.5 7.57V10.5a.5.5 0 0 1-1 0V7.57c.17-.01.33-.01.5-.01S13.33 7.56 13.5 7.57zM13.5 27.5v3.05c-.17.01-.33.01-.5.01s-.33 0-.5-.01V27.5a.5.5 0 0 1 1 0zM5.04 18.96a.50142.50142 0 0 1-.5.5H1.51c-.01-.13-.01-.27-.01-.4 0-.2.01-.4.01-.6H4.54A.49514.49514 0 0 1 5.04 18.96zM21.77 11L19.4 13.36a.48329.48329 0 0 1-.7 0 .49509.49509 0 0 1 0-.71l2.36-2.36A9.51468 9.51468 0 0 1 21.77 11zM7.38 25.38L4.94 27.83H4.93a9.36787 9.36787 0 0 1-.7-.71l2.45-2.45a.50108.50108 0 0 1 .7 0A.49506.49506 0 0 1 7.38 25.38zM7.45 13.36a.50775.50775 0 0 1-.36.15.50246.50246 0 0 1-.35-.15L5.3 11.92a9.35908 9.35908 0 0 1 .72-.69l1.43 1.42A.51347.51347 0 0 1 7.45 13.36zM20.83 26.04a7.77593 7.77593 0 0 1-.69.72l-1.38-1.38a.49506.49506 0 0 1 0-.71.51339.51339 0 0 1 .71 0z"/><rect width="5" height="3" x="10.5" y=".5" fill="#3c3b41" rx="1" ry="1"/><path fill="#2c2b2d" d="M11.5,2.5v-1a1,1,0,0,1,1-1h-1a1,1,0,0,0-1,1v1a1,1,0,0,0,1,1h1A1,1,0,0,1,11.5,2.5Z"/><path fill="#3c3b41" d="M12.99463 17.92969h-.002a.5.5 0 0 1-.498-.502l.01123-3.01318a.49992.49992 0 0 1 .5-.498h.002a.5.5 0 0 1 .498.502l-.01123 3.01318A.49992.49992 0 0 1 12.99463 17.92969zM9.459 21.917a.5001.5001 0 0 1-.30176-.89941l2.69971-2.03906a.50029.50029 0 0 1 .60254.79883L9.75977 21.81641A.50183.50183 0 0 1 9.459 21.917z"/><circle cx="13" cy="19" r="1.5" fill="#fdd402"/><path fill="#fdd402" d="M15.85,6.83a12.49926,12.49926,0,1,0,9.32,15.02A12.5021,12.5021,0,0,0,15.85,6.83Zm4.98,19.21a7.77593,7.77593,0,0,1-.69.72,10.47606,10.47606,0,0,1-6.64,2.79c-.17.01-.33.01-.5.01s-.33,0-.5-.01a10.47825,10.47825,0,0,1-6.56-2.72H5.93a9.36787,9.36787,0,0,1-.7-.71,10.45237,10.45237,0,0,1-2.72-6.66c-.01-.13-.01-.27-.01-.4,0-.2.01-.4.01-.6A10.582,10.582,0,0,1,5.3,11.92a9.35908,9.35908,0,0,1,.72-.69A10.43912,10.43912,0,0,1,12.5,8.57c.17-.01.33-.01.5-.01s.33,0,.5.01a10.47852,10.47852,0,0,1,6.56,2.72,9.51468,9.51468,0,0,1,.71.71,10.47639,10.47639,0,0,1,.06,14.04Z"/><path fill="#fbbf13" d="M11.15,31.17a12.49183,12.49183,0,0,1,2.40857-24.6488,12.49095,12.49095,0,1,0-.11719,24.95758A12.54711,12.54711,0,0,1,11.15,31.17Z"/><rect width="14" height="13" x="17.5" y="18.5" fill="#e0e0e2" rx="2" ry="2"/><path fill="#afaeb3" d="M18.5,29.5v-9a2,2,0,0,1,2-2h-1a2,2,0,0,0-2,2v9a2,2,0,0,0,2,2h1A2,2,0,0,1,18.5,29.5Z"/><path fill="#e5303e" d="M31.5,21.5h-14v-1a2.00588,2.00588,0,0,1,2-2h10a2.00588,2.00588,0,0,1,2,2Z"/><path fill="#b72732" d="M20.5,18.5h-1a2.00587,2.00587,0,0,0-2,2v1h1v-1A2.00587,2.00587,0,0,1,20.5,18.5Z"/><path fill="#8b8891" d="M19.5,20a.49971.49971,0,0,1-.5-.5v-2a.5.5,0,0,1,1,0v2A.49971.49971,0,0,1,19.5,20Z"/><path fill="#58565d" d="M19.3255,19.5v-2a.49522.49522,0,0,1,.33728-.46722A.49212.49212,0,0,0,19.5,17a.49971.49971,0,0,0-.5.5v2a.49971.49971,0,0,0,.5.5.49212.49212,0,0,0,.16278-.03278A.49522.49522,0,0,1,19.3255,19.5Z"/><path fill="#8b8891" d="M29.5,20a.49971.49971,0,0,1-.5-.5v-2a.5.5,0,0,1,1,0v2A.49971.49971,0,0,1,29.5,20Z"/><path fill="#e5303e" d="M24.5,27a2,2,0,1,1,2-2A2.00229,2.00229,0,0,1,24.5,27Zm0-3a1,1,0,1,0,1,1A1.001,1.001,0,0,0,24.5,24Z"/><path fill="#e5303e" d="M24.5,30a2,2,0,1,1,2-2A2.00229,2.00229,0,0,1,24.5,30Zm0-3a1,1,0,1,0,1,1A1.001,1.001,0,0,0,24.5,27Z"/><path fill="#58565d" d="M29.3255,19.5v-2a.49522.49522,0,0,1,.33728-.46722A.49212.49212,0,0,0,29.5,17a.49971.49971,0,0,0-.5.5v2a.49971.49971,0,0,0,.5.5.49212.49212,0,0,0,.16278-.03278A.49522.49522,0,0,1,29.3255,19.5Z"/></svg>